<?xml version="1.0" encoding="utf-8" standalone="no"?>
<!DOCTYPE svg PUBLIC "-//W3C//DTD SVG 1.1//EN"
  "http://www.w3.org/Graphics/SVG/1.1/DTD/svg11.dtd">
<svg xmlns:xlink="http://www.w3.org/1999/xlink" width="368.39952pt" height="260.399484pt" viewBox="0 0 368.39952 260.399484" xmlns="http://www.w3.org/2000/svg" version="1.1">
 <metadata>
  <rdf:RDF xmlns:dc="http://purl.org/dc/elements/1.1/" xmlns:cc="http://creativecommons.org/ns#" xmlns:rdf="http://www.w3.org/1999/02/22-rdf-syntax-ns#">
   <cc:Work>
    <dc:type rdf:resource="http://purl.org/dc/dcmitype/StillImage"/>
    <dc:date>2026-03-14T15:41:14.095527</dc:date>
    <dc:format>image/svg+xml</dc:format>
    <dc:creator>
     <cc:Agent>
      <dc:title>Matplotlib v3.10.0, https://matplotlib.org/</dc:title>
     </cc:Agent>
    </dc:creator>
   </cc:Work>
  </rdf:RDF>
 </metadata>
 <defs>
  <style type="text/css">*{stroke-linejoin: round; stroke-linecap: butt}</style>
 </defs>
 <g id="figure_1">
  <g id="patch_1">
   <path d="M 0 260.399484 
L 368.39952 260.399484 
L 368.39952 -0 
L 0 -0 
z
" style="fill: #ffffff"/>
  </g>
  <g id="axes_1">
   <g id="patch_2">
    <path d="M 47.714321 217.210551 
L 361.19952 217.210551 
L 361.19952 9.508098 
L 47.714321 9.508098 
z
" style="fill: #ffffff"/>
   </g>
   <g id="line2d_1">
    <path d="M 134.61961 261.399484 
L 134.793543 253.55848 
L 135.76109 257.193273 
L 136.009902 261.399484 
M 140.172928 261.399484 
L 140.598825 260.828066 
L 141.566372 249.923687 
L 142.144297 261.399484 
M 143.058137 261.399484 
L 143.501465 254.85662 
L 144.469012 246.548522 
L 144.950269 261.399484 
M 146.110334 261.399484 
L 146.404106 254.85662 
L 147.371653 241.875217 
L 148.3392 238.240424 
L 149.306747 254.077736 
L 150.274294 250.183315 
L 151.241841 245.250382 
L 152.209388 250.702571 
L 154.144481 242.394473 
L 155.112028 244.211869 
L 156.079575 226.297533 
L 157.047122 225.259021 
L 158.014669 228.114929 
L 158.982216 227.595673 
L 159.949763 245.250382 
L 160.91731 224.739764 
L 161.884857 244.731125 
L 162.852404 227.595673 
L 163.81995 242.913729 
L 164.787497 221.3646 
L 165.755044 229.932326 
L 166.722591 229.672698 
L 167.690138 229.932326 
L 168.657685 210.460221 
L 169.625232 230.970838 
L 170.592779 218.508691 
L 171.560326 210.200593 
L 172.527873 227.855301 
L 173.49542 213.835386 
L 174.462966 215.133526 
L 175.430513 219.806831 
L 176.39806 210.719849 
L 177.365607 214.354642 
L 178.333154 208.902452 
L 179.300701 224.220508 
L 180.268248 199.036586 
L 181.235795 211.498733 
L 183.170889 193.06514 
L 184.138436 210.200593 
L 185.105982 189.170719 
L 186.073529 198.257702 
L 187.041076 206.046544 
L 188.008623 192.545884 
L 188.97617 196.699933 
L 189.943717 203.450263 
L 190.911264 217.470179 
L 191.878811 195.921049 
L 192.846358 195.661421 
L 193.813905 203.969519 
L 194.781452 194.363281 
L 195.748998 176.189316 
L 197.684092 198.257702 
L 198.651639 199.81547 
L 199.619186 193.06514 
L 200.586733 195.401793 
L 201.55428 184.497414 
L 202.521827 195.661421 
L 203.489374 185.795555 
L 204.456921 182.160762 
L 205.424468 187.612951 
L 207.359561 173.333407 
L 208.327108 185.795555 
L 209.294655 180.083737 
L 210.262202 205.527288 
L 211.229749 173.852664 
L 212.197296 172.035267 
L 213.164843 185.535927 
L 214.13239 178.785597 
L 215.099937 159.832748 
L 216.067484 182.939646 
L 217.03503 176.708572 
L 218.002577 164.506053 
L 218.970124 178.006713 
L 219.937671 173.073779 
L 220.905218 160.352004 
L 221.872765 173.593036 
L 222.840312 167.881218 
L 223.807859 155.419071 
L 224.775406 168.140846 
L 225.742953 163.467541 
L 226.7105 162.429029 
L 227.678046 170.217871 
L 228.645593 160.092376 
L 229.61314 169.179358 
L 230.580687 172.035267 
L 231.548234 165.025309 
L 232.515781 164.765681 
L 233.483328 165.544565 
L 234.450875 152.563162 
L 235.418422 165.025309 
L 236.385969 158.794236 
L 237.353516 157.755724 
L 238.321062 154.380559 
L 239.288609 162.429029 
L 241.223703 151.005394 
L 243.158797 156.457583 
L 244.126344 167.102334 
L 245.093891 157.496095 
L 246.061438 165.025309 
L 247.028985 151.784278 
L 247.996532 152.563162 
L 248.964078 144.514692 
L 249.931625 149.447625 
L 250.899172 159.313492 
L 251.866719 147.630229 
L 252.834266 143.216552 
L 253.801813 139.841387 
L 254.76936 139.841387 
L 255.736907 147.630229 
L 256.704454 140.620271 
L 257.672001 143.216552 
L 258.639548 133.869941 
L 259.607094 141.918412 
L 260.574641 136.466222 
L 261.542188 136.206594 
L 262.509735 138.543247 
L 263.477282 145.293576 
L 264.444829 133.869941 
L 265.412376 141.658783 
L 266.379923 132.052545 
L 267.34747 135.42771 
L 268.315017 131.792917 
L 269.282564 135.42771 
L 270.25011 131.014033 
L 271.217657 149.707253 
L 272.185204 127.898496 
L 273.152751 121.407794 
L 274.120298 130.235149 
L 275.087845 141.399155 
L 276.055392 130.494777 
L 277.022939 133.091057 
L 277.990486 131.273661 
L 278.958033 124.782959 
L 279.92558 132.571801 
L 280.893127 126.859984 
L 281.860673 129.456264 
L 282.82822 126.859984 
L 283.795767 130.754405 
L 284.763314 126.340728 
L 285.730861 118.032629 
L 286.698408 132.052545 
L 287.665955 124.263703 
L 288.633502 121.92705 
L 289.601049 128.158124 
L 290.568596 121.92705 
L 291.536143 121.92705 
L 292.503689 125.561843 
L 293.471236 122.705935 
L 294.438783 129.975521 
L 295.40633 115.955605 
L 296.373877 108.945647 
L 297.341424 120.109654 
L 298.308971 121.148166 
L 299.276518 126.859984 
L 300.244065 118.292258 
L 301.211612 113.099696 
L 302.179159 125.821471 
L 303.146705 123.225191 
L 304.114252 114.917093 
L 305.081799 116.215233 
L 306.049346 128.417752 
L 307.016893 119.590398 
L 307.98444 115.695977 
L 308.951987 119.850026 
L 309.919534 118.292258 
L 310.887081 121.148166 
L 311.854628 120.888538 
L 312.822175 114.917093 
L 313.789721 120.369282 
L 314.757268 115.695977 
L 315.724815 113.618952 
L 316.692362 113.618952 
L 317.659909 112.061184 
L 318.627456 125.042587 
L 319.595003 112.320812 
L 320.56255 114.917093 
L 321.530097 119.590398 
L 322.497644 112.58044 
L 323.465191 108.686019 
L 324.432737 119.590398 
L 325.400284 113.359324 
L 326.367831 109.464903 
L 327.335378 117.513373 
L 328.302925 112.061184 
L 329.270472 121.407794 
L 330.238019 101.156805 
L 331.205566 91.031311 
L 332.173113 100.637549 
L 333.14066 99.858665 
L 334.108207 109.724531 
L 335.075753 104.012714 
L 336.0433 102.195317 
L 337.010847 105.051226 
L 337.978394 108.686019 
L 338.945941 99.599037 
L 339.913488 109.205275 
L 340.881035 99.599037 
L 341.848582 110.243788 
L 342.816129 98.300897 
L 343.783676 103.493458 
L 344.751223 106.089738 
L 345.718769 102.714574 
L 346.686316 108.426391 
L 347.653863 110.763044 
L 348.62141 104.53197 
L 348.62141 104.53197 
" clip-path="url(#p39a4d3a8fe)" style="fill: none; stroke: #2e2e2e; stroke-width: 1.6; stroke-linecap: square"/>
   </g>
   <g id="patch_3">
    <path d="M 47.714321 217.210551 
L 47.714321 9.508098 
" style="fill: none; stroke: #000000; stroke-linejoin: miter; stroke-linecap: square"/>
   </g>
   <g id="patch_4">
    <path d="M 361.19952 217.210551 
L 361.19952 9.508098 
" style="fill: none; stroke: #000000; stroke-linejoin: miter; stroke-linecap: square"/>
   </g>
   <g id="patch_5">
    <path d="M 47.714321 217.210551 
L 361.19952 217.210551 
" style="fill: none; stroke: #000000; stroke-linejoin: miter; stroke-linecap: square"/>
   </g>
   <g id="patch_6">
    <path d="M 47.714321 9.508098 
L 361.19952 9.508098 
" style="fill: none; stroke: #000000; stroke-linejoin: miter; stroke-linecap: square"/>
   </g>
   <g id="matplotlib.axis_1">
    <g id="xtick_1">
     <g id="line2d_2">
      <path d="M 59.324884 217.210551 
L 59.324884 9.508098 
" clip-path="url(#p39a4d3a8fe)" style="fill: none; stroke-dasharray: 2.96,1.28; stroke-dashoffset: 0; stroke: #b0b0b0; stroke-opacity: 0.35; stroke-width: 0.8"/>
     </g>
     <g id="line2d_3">
      <defs>
       <path id="m43c9ef6b4c" d="M 0 0 
L 0 3.5 
" style="stroke: #000000; stroke-width: 0.8"/>
      </defs>
      <g>
       <use xlink:href="#m43c9ef6b4c" x="59.324884" y="217.210551" style="stroke: #000000; stroke-width: 0.8"/>
      </g>
     </g>
     <g id="text_1">
      <!-- $\mathdefault{0}$ -->
      <g transform="translate(55.682294 233.259259) scale(0.13 -0.13)">
       <defs>
        <path id="LMRoman12-Bold-30" d="M 3309 2060 
C 3309 2677 3309 4224 1798 4224 
C 282 4224 282 2683 282 2060 
C 282 1444 282 -64 1792 -64 
C 3302 -64 3309 1424 3309 2060 
z
M 2541 2137 
C 2541 622 2445 532 2253 339 
C 2125 211 1952 147 1798 147 
C 1594 147 1440 230 1312 365 
C 1152 526 1050 628 1050 2137 
C 1050 2587 1050 2998 1101 3331 
C 1190 3967 1651 4012 1792 4012 
C 1997 4012 2394 3916 2483 3376 
C 2541 3049 2541 2529 2541 2137 
z
" transform="scale(0.015625)"/>
       </defs>
       <use xlink:href="#LMRoman12-Bold-30" transform="scale(0.996264)"/>
      </g>
     </g>
    </g>
    <g id="xtick_2">
     <g id="line2d_4">
      <path d="M 107.70223 217.210551 
L 107.70223 9.508098 
" clip-path="url(#p39a4d3a8fe)" style="fill: none; stroke-dasharray: 2.96,1.28; stroke-dashoffset: 0; stroke: #b0b0b0; stroke-opacity: 0.35; stroke-width: 0.8"/>
     </g>
     <g id="line2d_5">
      <g>
       <use xlink:href="#m43c9ef6b4c" x="107.70223" y="217.210551" style="stroke: #000000; stroke-width: 0.8"/>
      </g>
     </g>
     <g id="text_2">
      <!-- $\mathdefault{50}$ -->
      <g transform="translate(100.417049 233.259259) scale(0.13 -0.13)">
       <defs>
        <path id="LMRoman12-Bold-35" d="M 3232 1286 
C 3232 2067 2701 2624 1824 2624 
C 1568 2624 1261 2572 986 2368 
L 986 3328 
C 1203 3308 1376 3308 1472 3308 
C 1626 3276 1990 3276 2419 3539 
C 2618 3664 2950 3960 2950 4112 
C 2950 4145 2950 4224 2874 4224 
C 2874 4224 2854 4224 2790 4191 
C 2496 4098 2182 4032 1824 4032 
C 1459 4032 1152 4098 851 4200 
C 806 4212 787 4224 768 4224 
C 691 4224 691 4164 691 4062 
L 691 2179 
C 691 2055 691 1984 819 1984 
C 883 1984 896 1991 947 2055 
C 1024 2146 1254 2432 1798 2432 
C 2387 2432 2387 1822 2387 1312 
C 2387 851 2387 192 1600 192 
C 1363 192 960 280 742 640 
C 1082 627 1165 883 1165 1024 
C 1165 1267 998 1440 762 1440 
C 570 1440 358 1324 358 1024 
C 358 469 864 -64 1626 -64 
C 2611 -84 3232 486 3232 1280 
L 3232 1286 
z
" transform="scale(0.015625)"/>
       </defs>
       <use xlink:href="#LMRoman12-Bold-35" transform="scale(0.996264)"/>
       <use xlink:href="#LMRoman12-Bold-30" transform="translate(56.039851 0) scale(0.996264)"/>
      </g>
     </g>
    </g>
    <g id="xtick_3">
     <g id="line2d_6">
      <path d="M 156.079575 217.210551 
L 156.079575 9.508098 
" clip-path="url(#p39a4d3a8fe)" style="fill: none; stroke-dasharray: 2.96,1.28; stroke-dashoffset: 0; stroke: #b0b0b0; stroke-opacity: 0.35; stroke-width: 0.8"/>
     </g>
     <g id="line2d_7">
      <g>
       <use xlink:href="#m43c9ef6b4c" x="156.079575" y="217.210551" style="stroke: #000000; stroke-width: 0.8"/>
      </g>
     </g>
     <g id="text_3">
      <!-- $\mathdefault{100}$ -->
      <g transform="translate(145.151804 233.259259) scale(0.13 -0.13)">
       <defs>
        <path id="LMRoman12-Bold-31" d="M 3091 0 
L 3091 275 
L 2214 275 
L 2214 4029 
C 2214 4224 2202 4224 1997 4224 
C 1523 3795 813 3795 672 3795 
L 550 3795 
L 550 3520 
L 672 3520 
C 896 3520 1235 3558 1491 3641 
L 1491 275 
L 602 275 
L 602 0 
L 1843 12 
L 3091 0 
z
" transform="scale(0.015625)"/>
       </defs>
       <use xlink:href="#LMRoman12-Bold-31" transform="scale(0.996264)"/>
       <use xlink:href="#LMRoman12-Bold-30" transform="translate(56.039851 0) scale(0.996264)"/>
       <use xlink:href="#LMRoman12-Bold-30" transform="translate(112.079701 0) scale(0.996264)"/>
      </g>
     </g>
    </g>
    <g id="xtick_4">
     <g id="line2d_8">
      <path d="M 204.456921 217.210551 
L 204.456921 9.508098 
" clip-path="url(#p39a4d3a8fe)" style="fill: none; stroke-dasharray: 2.96,1.28; stroke-dashoffset: 0; stroke: #b0b0b0; stroke-opacity: 0.35; stroke-width: 0.8"/>
     </g>
     <g id="line2d_9">
      <g>
       <use xlink:href="#m43c9ef6b4c" x="204.456921" y="217.210551" style="stroke: #000000; stroke-width: 0.8"/>
      </g>
     </g>
     <g id="text_4">
      <!-- $\mathdefault{150}$ -->
      <g transform="translate(193.52915 233.259259) scale(0.13 -0.13)">
       <use xlink:href="#LMRoman12-Bold-31" transform="scale(0.996264)"/>
       <use xlink:href="#LMRoman12-Bold-35" transform="translate(56.039851 0) scale(0.996264)"/>
       <use xlink:href="#LMRoman12-Bold-30" transform="translate(112.079701 0) scale(0.996264)"/>
      </g>
     </g>
    </g>
    <g id="xtick_5">
     <g id="line2d_10">
      <path d="M 252.834266 217.210551 
L 252.834266 9.508098 
" clip-path="url(#p39a4d3a8fe)" style="fill: none; stroke-dasharray: 2.96,1.28; stroke-dashoffset: 0; stroke: #b0b0b0; stroke-opacity: 0.35; stroke-width: 0.8"/>
     </g>
     <g id="line2d_11">
      <g>
       <use xlink:href="#m43c9ef6b4c" x="252.834266" y="217.210551" style="stroke: #000000; stroke-width: 0.8"/>
      </g>
     </g>
     <g id="text_5">
      <!-- $\mathdefault{200}$ -->
      <g transform="translate(241.906495 233.259259) scale(0.13 -0.13)">
       <defs>
        <path id="LMRoman12-Bold-32" d="M 3232 1378 
L 2963 1378 
C 2944 1243 2899 864 2803 800 
C 2752 755 2253 755 2157 755 
L 1165 755 
L 2086 1519 
C 2797 2052 3232 2379 3232 2995 
C 3232 3759 2547 4224 1702 4224 
C 979 4224 358 3806 358 3187 
C 358 2848 634 2752 781 2752 
C 979 2752 1210 2886 1210 3180 
C 1210 3449 1011 3584 813 3610 
C 1069 3921 1408 3948 1542 3948 
C 2131 3948 2413 3449 2413 2988 
C 2413 2488 2074 2026 1811 1750 
L 422 294 
C 358 236 358 224 358 108 
L 358 0 
L 3046 0 
L 3232 1378 
z
" transform="scale(0.015625)"/>
       </defs>
       <use xlink:href="#LMRoman12-Bold-32" transform="scale(0.996264)"/>
       <use xlink:href="#LMRoman12-Bold-30" transform="translate(56.039851 0) scale(0.996264)"/>
       <use xlink:href="#LMRoman12-Bold-30" transform="translate(112.079701 0) scale(0.996264)"/>
      </g>
     </g>
    </g>
    <g id="xtick_6">
     <g id="line2d_12">
      <path d="M 301.211612 217.210551 
L 301.211612 9.508098 
" clip-path="url(#p39a4d3a8fe)" style="fill: none; stroke-dasharray: 2.96,1.28; stroke-dashoffset: 0; stroke: #b0b0b0; stroke-opacity: 0.35; stroke-width: 0.8"/>
     </g>
     <g id="line2d_13">
      <g>
       <use xlink:href="#m43c9ef6b4c" x="301.211612" y="217.210551" style="stroke: #000000; stroke-width: 0.8"/>
      </g>
     </g>
     <g id="text_6">
      <!-- $\mathdefault{250}$ -->
      <g transform="translate(290.283841 233.259259) scale(0.13 -0.13)">
       <use xlink:href="#LMRoman12-Bold-32" transform="scale(0.996264)"/>
       <use xlink:href="#LMRoman12-Bold-35" transform="translate(56.039851 0) scale(0.996264)"/>
       <use xlink:href="#LMRoman12-Bold-30" transform="translate(112.079701 0) scale(0.996264)"/>
      </g>
     </g>
    </g>
    <g id="xtick_7">
     <g id="line2d_14">
      <path d="M 349.588957 217.210551 
L 349.588957 9.508098 
" clip-path="url(#p39a4d3a8fe)" style="fill: none; stroke-dasharray: 2.96,1.28; stroke-dashoffset: 0; stroke: #b0b0b0; stroke-opacity: 0.35; stroke-width: 0.8"/>
     </g>
     <g id="line2d_15">
      <g>
       <use xlink:href="#m43c9ef6b4c" x="349.588957" y="217.210551" style="stroke: #000000; stroke-width: 0.8"/>
      </g>
     </g>
     <g id="text_7">
      <!-- $\mathdefault{300}$ -->
      <g transform="translate(338.661186 233.259259) scale(0.13 -0.13)">
       <defs>
        <path id="LMRoman12-Bold-33" d="M 3290 1164 
C 3290 1479 3130 2092 2138 2265 
C 2701 2436 3091 2824 3091 3327 
C 3091 3812 2630 4224 1741 4224 
C 1024 4224 499 3839 499 3315 
C 499 2995 749 2892 915 2892 
C 1101 2892 1325 3014 1325 3308 
C 1325 3455 1261 3673 960 3718 
C 1229 3993 1664 3993 1702 3993 
C 2272 3993 2272 3539 2272 3347 
C 2272 3155 2246 2861 2042 2605 
C 1875 2392 1709 2380 1466 2368 
C 1389 2361 1261 2355 1235 2342 
C 1197 2323 1197 2278 1197 2252 
C 1197 2143 1235 2143 1363 2143 
L 1670 2143 
C 2387 2143 2387 1473 2387 1164 
C 2387 876 2387 192 1696 192 
C 1562 192 1139 211 832 434 
C 1107 492 1203 691 1203 883 
C 1203 1145 1018 1331 755 1331 
C 486 1324 301 1139 301 870 
C 301 281 941 -64 1728 -64 
C 2784 -64 3290 518 3290 1158 
L 3290 1164 
z
" transform="scale(0.015625)"/>
       </defs>
       <use xlink:href="#LMRoman12-Bold-33" transform="scale(0.996264)"/>
       <use xlink:href="#LMRoman12-Bold-30" transform="translate(56.039851 0) scale(0.996264)"/>
       <use xlink:href="#LMRoman12-Bold-30" transform="translate(112.079701 0) scale(0.996264)"/>
      </g>
     </g>
    </g>
    <g id="text_8">
     <!-- \textbf{Epoch} -->
     <g transform="translate(181.427041 250.292857) scale(0.15 -0.15)">
      <defs>
       <path id="LMRoman12-Bold-45" d="M 4518 1717 
L 4250 1717 
C 4115 770 3878 275 2765 275 
L 1766 275 
L 1766 2112 
L 2144 2112 
C 2758 2112 2822 1851 2822 1368 
L 3091 1368 
L 3091 3138 
L 2822 3138 
C 2822 2657 2758 2387 2144 2387 
L 1766 2387 
L 1766 4076 
L 2765 4076 
C 3744 4076 3955 3661 4051 2837 
L 4320 2837 
L 4134 4352 
L 243 4352 
L 243 4076 
L 922 4076 
L 922 275 
L 243 275 
L 243 0 
L 4243 0 
L 4518 1717 
z
" transform="scale(0.015625)"/>
       <path id="LMRoman12-Bold-70" d="M 3750 1427 
C 3750 2310 3155 2880 2291 2880 
C 1914 2880 1587 2751 1331 2547 
L 1331 2880 
L 224 2835 
L 224 2560 
C 621 2560 666 2560 666 2307 
L 666 -1005 
L 224 -1005 
L 224 -1280 
C 371 -1268 832 -1268 1011 -1268 
C 1190 -1268 1658 -1268 1805 -1280 
L 1805 -1005 
L 1363 -1005 
L 1363 238 
C 1523 96 1805 -64 2189 -64 
C 3066 -64 3750 471 3750 1418 
L 3750 1427 
z
M 2982 1418 
C 2982 478 2522 147 2112 147 
C 1837 147 1562 289 1363 594 
L 1363 2242 
C 1600 2547 1939 2649 2189 2649 
C 2605 2649 2982 2271 2982 1427 
L 2982 1418 
z
" transform="scale(0.015625)"/>
       <path id="LMRoman12-Bold-6f" d="M 3392 1379 
C 3392 2245 2803 2880 1798 2880 
C 755 2880 198 2213 198 1379 
C 198 538 787 -64 1792 -64 
C 2835 -64 3392 570 3392 1379 
z
M 2624 1443 
C 2624 910 2624 166 1798 166 
C 966 166 966 917 966 1443 
C 966 1744 966 2065 1088 2296 
C 1229 2553 1517 2668 1792 2668 
C 2157 2668 2387 2495 2496 2315 
C 2624 2084 2624 1751 2624 1443 
z
" transform="scale(0.015625)"/>
       <path id="LMRoman12-Bold-63" d="M 2995 724 
C 2995 801 2925 801 2861 801 
C 2758 801 2752 795 2720 718 
C 2675 596 2502 166 1914 166 
C 1011 166 1011 1141 1011 1430 
C 1011 1808 1018 2649 1856 2649 
C 1901 2649 2278 2636 2278 2604 
C 2278 2604 2272 2591 2259 2585 
C 2240 2566 2157 2469 2157 2309 
C 2157 2039 2374 1930 2534 1930 
C 2669 1930 2912 2014 2912 2315 
C 2912 2841 2176 2880 1830 2880 
C 691 2880 243 2136 243 1398 
C 243 525 851 -64 1792 -64 
C 2797 -64 2995 679 2995 724 
z
" transform="scale(0.015625)"/>
       <path id="LMRoman12-Bold-68" d="M 3840 0 
L 3840 275 
L 3398 275 
L 3398 1964 
C 3398 2567 3136 2880 2432 2880 
C 1786 2880 1472 2429 1382 2240 
L 1376 2240 
L 1376 4480 
L 269 4416 
L 269 4140 
C 666 4140 710 4140 710 3885 
L 710 275 
L 269 275 
L 269 0 
C 416 12 877 12 1056 12 
C 1235 12 1702 12 1850 0 
L 1850 275 
L 1408 275 
L 1408 1638 
C 1408 2329 1920 2668 2330 2668 
C 2566 2668 2701 2515 2701 2028 
L 2701 275 
L 2259 275 
L 2259 0 
C 2406 12 2867 12 3046 12 
C 3226 12 3693 12 3840 0 
z
" transform="scale(0.015625)"/>
      </defs>
      <use xlink:href="#LMRoman12-Bold-45" transform="scale(0.996264)"/>
      <use xlink:href="#LMRoman12-Bold-70" transform="translate(73.565697 0) scale(0.996264)"/>
      <use xlink:href="#LMRoman12-Bold-6f" transform="translate(138.945522 0) scale(0.996264)"/>
      <use xlink:href="#LMRoman12-Bold-63" transform="translate(198.098698 0) scale(0.996264)"/>
      <use xlink:href="#LMRoman12-Bold-68" transform="translate(244.798573 0) scale(0.996264)"/>
     </g>
    </g>
   </g>
   <g id="matplotlib.axis_2">
    <g id="ytick_1">
     <g id="line2d_16">
      <path d="M 47.714321 191.247744 
L 361.19952 191.247744 
" clip-path="url(#p39a4d3a8fe)" style="fill: none; stroke-dasharray: 2.96,1.28; stroke-dashoffset: 0; stroke: #b0b0b0; stroke-opacity: 0.35; stroke-width: 0.8"/>
     </g>
     <g id="line2d_17">
      <defs>
       <path id="mc76855bab4" d="M 0 0 
L -3.5 0 
" style="stroke: #000000; stroke-width: 0.8"/>
      </defs>
      <g>
       <use xlink:href="#mc76855bab4" x="47.714321" y="191.247744" style="stroke: #000000; stroke-width: 0.8"/>
      </g>
     </g>
     <g id="text_9">
      <!-- $\mathdefault{76}$ -->
      <g transform="translate(26.14396 195.772098) scale(0.13 -0.13)">
       <defs>
        <path id="LMRoman12-Bold-37" d="M 3488 4147 
L 2138 4147 
C 2093 4147 1139 4179 1062 4192 
C 902 4217 890 4288 877 4352 
L 608 4352 
L 397 2768 
L 666 2768 
C 672 2833 723 3282 832 3353 
C 890 3392 1421 3392 1523 3392 
L 2682 3392 
C 1939 2486 1856 2383 1658 2004 
C 1280 1259 1222 681 1222 366 
C 1222 -64 1549 -64 1600 -64 
C 1760 -64 1850 19 1894 64 
C 1978 167 1978 244 1978 526 
C 1978 1509 2067 2229 2470 2711 
L 3430 3859 
C 3488 3923 3488 3936 3488 4147 
z
" transform="scale(0.015625)"/>
        <path id="LMRoman12-Bold-36" d="M 3290 1334 
C 3290 2232 2669 2707 1907 2707 
C 1779 2707 1370 2707 1114 2162 
L 1114 2335 
C 1114 2727 1133 3142 1312 3488 
C 1453 3756 1779 3993 2195 3993 
C 2317 3993 2547 3975 2701 3827 
C 2458 3801 2355 3622 2355 3449 
C 2355 3219 2528 3072 2733 3072 
C 2899 3072 3110 3180 3110 3462 
C 3110 3845 2854 4224 2182 4224 
C 1382 4224 301 3737 301 2046 
C 301 1616 301 -64 1818 -64 
C 2662 -64 3290 435 3290 1334 
z
M 2477 1340 
C 2477 705 2477 192 1811 192 
C 1402 192 1242 538 1216 589 
C 1126 801 1126 1315 1126 1372 
C 1126 2162 1466 2496 1843 2496 
C 2477 2496 2477 1982 2477 1340 
z
" transform="scale(0.015625)"/>
       </defs>
       <use xlink:href="#LMRoman12-Bold-37" transform="scale(0.996264)"/>
       <use xlink:href="#LMRoman12-Bold-36" transform="translate(56.039851 0) scale(0.996264)"/>
      </g>
     </g>
    </g>
    <g id="ytick_2">
     <g id="line2d_18">
      <path d="M 47.714321 139.322131 
L 361.19952 139.322131 
" clip-path="url(#p39a4d3a8fe)" style="fill: none; stroke-dasharray: 2.96,1.28; stroke-dashoffset: 0; stroke: #b0b0b0; stroke-opacity: 0.35; stroke-width: 0.8"/>
     </g>
     <g id="line2d_19">
      <g>
       <use xlink:href="#mc76855bab4" x="47.714321" y="139.322131" style="stroke: #000000; stroke-width: 0.8"/>
      </g>
     </g>
     <g id="text_10">
      <!-- $\mathdefault{78}$ -->
      <g transform="translate(26.14396 143.846485) scale(0.13 -0.13)">
       <defs>
        <path id="LMRoman12-Bold-38" d="M 3290 1193 
C 3290 1893 2739 2195 2413 2375 
C 2733 2542 3091 2780 3091 3280 
C 3091 3942 2502 4224 1805 4224 
C 954 4224 499 3736 499 3113 
C 499 2767 672 2381 1146 2131 
C 422 1810 301 1367 301 1033 
C 301 294 941 -64 1786 -64 
C 2733 -64 3290 448 3290 1193 
z
M 2637 3280 
C 2637 3017 2522 2741 2157 2529 
L 1261 3036 
C 1133 3107 954 3255 954 3467 
C 954 3980 1638 3993 1786 3993 
C 2330 3993 2637 3704 2637 3280 
z
M 2778 866 
C 2778 352 2266 192 1805 192 
C 1171 192 813 532 813 1039 
C 813 1508 1101 1803 1408 1977 
L 2291 1469 
C 2502 1347 2778 1193 2778 866 
z
" transform="scale(0.015625)"/>
       </defs>
       <use xlink:href="#LMRoman12-Bold-37" transform="scale(0.996264)"/>
       <use xlink:href="#LMRoman12-Bold-38" transform="translate(56.039851 0) scale(0.996264)"/>
      </g>
     </g>
    </g>
    <g id="ytick_3">
     <g id="line2d_20">
      <path d="M 47.714321 87.396518 
L 361.19952 87.396518 
" clip-path="url(#p39a4d3a8fe)" style="fill: none; stroke-dasharray: 2.96,1.28; stroke-dashoffset: 0; stroke: #b0b0b0; stroke-opacity: 0.35; stroke-width: 0.8"/>
     </g>
     <g id="line2d_21">
      <g>
       <use xlink:href="#mc76855bab4" x="47.714321" y="87.396518" style="stroke: #000000; stroke-width: 0.8"/>
      </g>
     </g>
     <g id="text_11">
      <!-- $\mathdefault{80}$ -->
      <g transform="translate(26.14396 91.920872) scale(0.13 -0.13)">
       <use xlink:href="#LMRoman12-Bold-38" transform="scale(0.996264)"/>
       <use xlink:href="#LMRoman12-Bold-30" transform="translate(56.039851 0) scale(0.996264)"/>
      </g>
     </g>
    </g>
    <g id="ytick_4">
     <g id="line2d_22">
      <path d="M 47.714321 35.470905 
L 361.19952 35.470905 
" clip-path="url(#p39a4d3a8fe)" style="fill: none; stroke-dasharray: 2.96,1.28; stroke-dashoffset: 0; stroke: #b0b0b0; stroke-opacity: 0.35; stroke-width: 0.8"/>
     </g>
     <g id="line2d_23">
      <g>
       <use xlink:href="#mc76855bab4" x="47.714321" y="35.470905" style="stroke: #000000; stroke-width: 0.8"/>
      </g>
     </g>
     <g id="text_12">
      <!-- $\mathdefault{82}$ -->
      <g transform="translate(26.14396 39.995259) scale(0.13 -0.13)">
       <use xlink:href="#LMRoman12-Bold-38" transform="scale(0.996264)"/>
       <use xlink:href="#LMRoman12-Bold-32" transform="translate(56.039851 0) scale(0.996264)"/>
      </g>
     </g>
    </g>
    <g id="text_13">
     <!-- \textbf{Test Accuracy (\%)} -->
     <g transform="translate(18.40797 182.020272) rotate(-90) scale(0.15 -0.15)">
      <defs>
       <path id="LMRoman12-Bold-54" d="M 4736 2828 
L 4608 4352 
L 390 4352 
L 262 2828 
L 531 2828 
C 589 3530 640 4076 1562 4076 
L 2080 4076 
L 2080 275 
L 1114 275 
L 1114 0 
L 2502 12 
L 3891 0 
L 3891 275 
L 2925 275 
L 2925 4076 
L 3437 4076 
C 4358 4076 4410 3536 4467 2828 
L 4736 2828 
z
" transform="scale(0.015625)"/>
       <path id="LMRoman12-Bold-65" d="M 3078 731 
C 3078 829 2982 829 2944 829 
C 2842 829 2835 809 2797 725 
C 2630 302 2208 166 1901 166 
C 973 166 966 1043 966 1408 
L 2893 1408 
C 3040 1408 3078 1408 3078 1568 
C 3078 1758 3034 2232 2739 2529 
C 2470 2796 2112 2880 1741 2880 
C 742 2880 198 2232 198 1433 
C 198 523 858 -64 1824 -64 
C 2790 -64 3078 621 3078 731 
z
M 2490 1593 
L 966 1593 
C 979 1852 986 2099 1120 2327 
C 1242 2529 1466 2668 1741 2668 
C 2426 2668 2483 1909 2490 1593 
z
" transform="scale(0.015625)"/>
       <path id="LMRoman12-Bold-73" d="M 2592 880 
C 2592 1190 2426 1392 2298 1501 
C 2035 1707 1818 1744 1472 1805 
C 1062 1871 678 1938 678 2240 
C 678 2687 1248 2687 1382 2687 
C 2093 2687 2131 2208 2144 2048 
C 2150 1969 2202 1969 2278 1969 
C 2413 1969 2413 1987 2413 2131 
L 2413 2713 
C 2413 2835 2413 2880 2317 2880 
C 2278 2880 2266 2880 2170 2822 
C 2144 2803 2074 2758 2042 2739 
C 1862 2841 1626 2880 1395 2880 
C 1203 2880 243 2880 243 2017 
C 243 1379 1037 1246 1235 1216 
C 1408 1183 1619 1145 1645 1145 
C 1901 1087 2157 925 2157 651 
C 2157 147 1574 147 1440 147 
C 1114 147 710 251 531 886 
C 493 1017 486 1023 378 1023 
C 243 1023 243 1004 243 853 
L 243 102 
C 243 -20 243 -64 339 -64 
C 384 -64 397 -64 525 38 
L 691 160 
C 979 -64 1325 -64 1440 -64 
C 1792 -64 2592 12 2592 880 
z
" transform="scale(0.015625)"/>
       <path id="LMRoman12-Bold-74" d="M 2394 768 
L 2394 1107 
L 2125 1107 
L 2125 774 
C 2125 352 1933 166 1734 166 
C 1350 166 1350 595 1350 742 
L 1350 2540 
L 2272 2540 
L 2272 2816 
L 1350 2816 
L 1350 4032 
L 1082 4032 
C 1075 3401 768 2771 134 2751 
L 134 2540 
L 653 2540 
L 653 761 
C 653 83 1178 -64 1638 -64 
C 2112 -64 2394 294 2394 768 
z
" transform="scale(0.015625)"/>
       <path id="LMRoman12-Bold-41" d="M 5184 0 
L 5184 275 
L 4576 275 
L 2931 4333 
C 2886 4447 2874 4480 2720 4480 
C 2560 4480 2547 4447 2502 4333 
L 915 429 
C 870 326 870 313 691 294 
C 531 275 506 275 365 275 
L 250 275 
L 250 0 
C 416 12 800 12 986 12 
C 1158 12 1626 12 1773 0 
L 1773 275 
C 1632 275 1389 275 1210 346 
C 1229 404 1229 416 1242 442 
L 1581 1280 
L 3296 1280 
L 3699 275 
L 3098 275 
L 3098 0 
C 3302 12 3923 12 4166 12 
C 4371 12 5024 12 5184 0 
z
M 3181 1555 
L 1690 1555 
L 2438 3394 
L 3181 1555 
z
" transform="scale(0.015625)"/>
       <path id="LMRoman12-Bold-75" d="M 3840 0 
L 3840 275 
C 3443 275 3398 275 3398 524 
L 3398 2880 
L 2259 2835 
L 2259 2560 
C 2656 2560 2701 2560 2701 2307 
L 2701 1035 
C 2701 542 2413 147 1914 147 
C 1434 147 1408 309 1408 666 
L 1408 2880 
L 269 2835 
L 269 2560 
C 666 2560 710 2560 710 2307 
L 710 769 
C 710 121 1139 -64 1824 -64 
C 1978 -64 2451 -64 2726 458 
L 2733 458 
L 2733 -64 
L 3840 0 
z
" transform="scale(0.015625)"/>
       <path id="LMRoman12-Bold-72" d="M 2733 2374 
C 2733 2700 2400 2880 2093 2880 
C 1587 2880 1370 2438 1280 2169 
L 1274 2169 
L 1274 2880 
L 224 2835 
L 224 2560 
C 621 2560 666 2560 666 2309 
L 666 275 
L 224 275 
L 224 0 
C 371 12 851 12 1030 12 
C 1216 12 1734 12 1888 0 
L 1888 275 
L 1331 275 
L 1331 1443 
C 1331 1651 1376 2668 2125 2668 
C 2035 2598 1990 2489 1990 2374 
C 1990 2111 2202 2003 2362 2003 
C 2522 2003 2733 2111 2733 2374 
z
" transform="scale(0.015625)"/>
       <path id="LMRoman12-Bold-61" d="M 3462 115 
C 3462 249 3405 249 3315 249 
C 2912 256 2912 358 2912 506 
L 2912 1892 
C 2912 2482 2445 2880 1542 2880 
C 1184 2880 429 2847 429 2309 
C 429 2039 634 1924 806 1924 
C 998 1924 1184 2059 1184 2302 
C 1184 2424 1139 2540 1030 2610 
C 1242 2668 1395 2668 1517 2668 
C 1952 2668 2214 2424 2214 1898 
L 2214 1642 
C 1203 1642 186 1359 186 647 
C 186 64 928 -64 1370 -64 
C 1862 -64 2176 204 2304 487 
C 2304 275 2304 0 2950 0 
L 3277 0 
C 3411 0 3462 0 3462 140 
L 3462 115 
z
M 2214 889 
C 2214 288 1677 172 1472 172 
C 1158 172 896 384 896 678 
C 896 1260 1587 1459 2214 1491 
L 2214 889 
z
" transform="scale(0.015625)"/>
       <path id="LMRoman12-Bold-79" d="M 3642 2540 
L 3642 2816 
C 3424 2803 3398 2803 3136 2803 
L 2586 2816 
L 2586 2540 
C 2586 2540 2893 2540 2893 2457 
C 2893 2438 2874 2400 2867 2381 
L 2118 780 
L 1299 2540 
L 1651 2540 
L 1651 2816 
C 1498 2803 1062 2803 883 2803 
C 698 2803 320 2803 154 2816 
L 154 2540 
L 563 2540 
L 1747 -8 
C 1715 -84 1626 -269 1594 -345 
C 1459 -631 1254 -1069 806 -1069 
C 781 -1069 704 -1069 634 -1031 
C 646 -1025 838 -949 838 -707 
C 838 -497 685 -364 493 -364 
C 294 -364 141 -497 141 -713 
C 141 -1012 422 -1280 806 -1280 
C 1331 -1280 1677 -809 1805 -529 
L 3168 2400 
C 3206 2489 3232 2540 3642 2540 
z
" transform="scale(0.015625)"/>
       <path id="LMRoman12-Bold-28" d="M 2394 -1524 
C 2394 -1498 2394 -1485 2272 -1370 
C 1555 -654 1280 471 1280 1596 
C 1280 2856 1594 3892 2310 4614 
C 2387 4691 2394 4697 2394 4723 
C 2394 4800 2317 4800 2285 4800 
C 2227 4800 2214 4800 2048 4665 
C 1126 3930 691 2754 691 1603 
C 691 426 1133 -718 2042 -1460 
C 2208 -1600 2221 -1600 2285 -1600 
C 2317 -1600 2394 -1600 2394 -1524 
z
" transform="scale(0.015625)"/>
       <path id="LMRoman12-Bold-25" d="M 4992 4640 
C 4992 4755 4902 4819 4819 4819 
C 4736 4819 4698 4774 4627 4691 
C 4314 4320 3885 4140 3379 4140 
C 2925 4140 2438 4300 2022 4614 
C 1888 4710 1741 4819 1472 4819 
C 947 4819 397 4428 397 3532 
C 397 2592 979 2240 1472 2240 
C 1952 2240 2394 2636 2394 3526 
C 2394 3692 2381 3961 2285 4204 
C 2541 4076 2925 3936 3392 3936 
C 3661 3936 3930 3980 4160 4083 
L 4166 4076 
L 1069 -13 
C 1024 -71 998 -103 998 -161 
C 998 -263 1082 -340 1178 -340 
C 1261 -340 1299 -289 1344 -231 
L 4922 4492 
C 4973 4563 4992 4582 4992 4640 
z
M 5594 947 
C 5594 1875 5126 2240 4672 2240 
C 4147 2240 3597 1849 3597 953 
C 3597 12 4179 -340 4672 -340 
C 5152 -340 5594 57 5594 947 
z
M 2125 3532 
C 2125 2675 1734 2451 1491 2451 
C 1024 2451 1024 3110 1024 3526 
C 1024 3948 1024 4608 1491 4608 
C 1754 4608 2125 4352 2125 3532 
z
M 5325 953 
C 5325 95 4934 -129 4691 -129 
C 4224 -129 4224 531 4224 947 
C 4224 1369 4224 2028 4691 2028 
C 4954 2028 5325 1772 5325 953 
z
" transform="scale(0.015625)"/>
       <path id="LMRoman12-Bold-29" d="M 2099 1596 
C 2099 2773 1658 3917 749 4659 
C 582 4800 570 4800 506 4800 
C 474 4800 397 4800 397 4723 
C 397 4697 397 4684 518 4569 
C 1235 3853 1510 2728 1510 1603 
C 1510 343 1197 -693 480 -1415 
C 403 -1492 397 -1498 397 -1524 
C 397 -1600 474 -1600 506 -1600 
C 563 -1600 576 -1600 742 -1466 
C 1664 -731 2099 445 2099 1596 
z
" transform="scale(0.015625)"/>
      </defs>
      <use xlink:href="#LMRoman12-Bold-54" transform="scale(0.996264)"/>
      <use xlink:href="#LMRoman12-Bold-65" transform="translate(68.609444 0) scale(0.996264)"/>
      <use xlink:href="#LMRoman12-Bold-73" transform="translate(119.750992 0) scale(0.996264)"/>
      <use xlink:href="#LMRoman12-Bold-74" transform="translate(163.960146 0) scale(0.996264)"/>
      <use xlink:href="#LMRoman12-Bold-41" transform="translate(244.906597 0) scale(0.996264)"/>
      <use xlink:href="#LMRoman12-Bold-63" transform="translate(326.425866 0) scale(0.996264)"/>
      <use xlink:href="#LMRoman12-Bold-63" transform="translate(376.239067 0) scale(0.996264)"/>
      <use xlink:href="#LMRoman12-Bold-75" transform="translate(426.052267 0) scale(0.996264)"/>
      <use xlink:href="#LMRoman12-Bold-72" transform="translate(488.318768 0) scale(0.996264)"/>
      <use xlink:href="#LMRoman12-Bold-61" transform="translate(534.097127 0) scale(0.996264)"/>
      <use xlink:href="#LMRoman12-Bold-63" transform="translate(588.580315 0) scale(0.996264)"/>
      <use xlink:href="#LMRoman12-Bold-79" transform="translate(638.393515 0) scale(0.996264)"/>
      <use xlink:href="#LMRoman12-Bold-28" transform="translate(734.906591 0) scale(0.996264)"/>
      <use xlink:href="#LMRoman12-Bold-25" transform="translate(778.493142 0) scale(0.996264)"/>
      <use xlink:href="#LMRoman12-Bold-29" transform="translate(871.892892 0) scale(0.996264)"/>
     </g>
    </g>
   </g>
   <g id="line2d_24">
    <path d="M 128.443715 261.399484 
L 128.988262 255.116248 
L 129.476085 261.399484 
M 130.226711 261.399484 
L 130.923356 245.51001 
L 131.890902 259.789553 
L 132.858449 254.596992 
L 133.732608 261.399484 
M 133.864141 261.399484 
L 134.793543 243.692613 
L 135.76109 252.519967 
L 136.728637 250.442943 
L 137.696184 247.327406 
L 138.663731 242.913729 
L 139.631278 252.260339 
L 140.598825 239.798192 
L 141.566372 242.394473 
L 142.533918 249.404431 
L 143.501465 250.702571 
L 144.469012 226.037905 
L 145.436559 254.077736 
L 146.404106 231.490094 
L 147.371653 238.75968 
L 148.3392 218.249063 
L 149.306747 224.220508 
L 150.274294 236.682655 
L 151.241841 224.999392 
L 152.209388 231.490094 
L 153.176934 214.873898 
L 154.144481 236.163399 
L 155.112028 233.047863 
L 156.079575 219.806831 
L 157.047122 213.835386 
L 158.014669 229.153442 
L 158.982216 207.86394 
L 159.949763 229.153442 
L 160.91731 212.537245 
L 161.884857 220.326087 
L 162.852404 208.902452 
L 163.81995 227.336045 
L 164.787497 202.931007 
L 165.755044 210.719849 
L 166.722591 215.652782 
L 167.690138 212.796873 
L 168.657685 219.287575 
L 169.625232 202.152123 
L 170.592779 208.642824 
L 171.560326 213.835386 
L 172.527873 212.796873 
L 173.49542 195.401793 
L 174.462966 200.594354 
L 175.430513 195.401793 
L 176.39806 185.01667 
L 177.365607 215.652782 
L 178.333154 192.286256 
L 179.300701 205.786916 
L 180.268248 176.9682 
L 181.235795 195.661421 
L 182.203342 187.872579 
L 183.170889 185.535927 
L 184.138436 185.535927 
L 185.105982 166.583078 
L 186.073529 192.026628 
L 187.041076 199.81547 
L 188.008623 202.152123 
L 188.97617 184.497414 
L 189.943717 178.266341 
L 190.911264 190.988116 
L 191.878811 165.284937 
L 192.846358 180.602993 
L 193.813905 179.824109 
L 194.781452 183.978158 
L 195.748998 158.794236 
L 196.716545 179.824109 
L 197.684092 163.207913 
L 198.651639 183.458902 
L 199.619186 180.862621 
L 200.586733 180.602993 
L 201.55428 175.410432 
L 202.521827 179.564481 
L 203.489374 157.755724 
L 204.456921 172.814151 
L 206.392014 158.015352 
L 207.359561 167.881218 
L 208.327108 173.333407 
L 209.294655 160.092376 
L 210.262202 161.130888 
L 211.229749 150.22651 
L 212.197296 152.043906 
L 213.164843 145.812833 
L 214.13239 170.737127 
L 215.099937 142.956924 
L 216.067484 173.852664 
L 217.03503 159.053864 
L 218.002577 152.303534 
L 218.970124 159.832748 
L 219.937671 158.27498 
L 220.905218 158.27498 
L 221.872765 161.390516 
L 222.840312 158.015352 
L 223.807859 138.023991 
L 224.775406 152.303534 
L 225.742953 147.889857 
L 226.7105 141.139527 
L 227.678046 149.447625 
L 228.645593 145.293576 
L 229.61314 149.966882 
L 230.580687 147.370601 
L 231.548234 152.303534 
L 232.515781 142.437668 
L 233.483328 154.640187 
L 234.450875 133.610313 
L 235.418422 132.052545 
L 236.385969 150.22651 
L 237.353516 138.283619 
L 238.321062 146.072461 
L 239.288609 151.52465 
L 240.256156 135.946966 
L 241.223703 136.206594 
L 242.19125 135.42771 
L 243.158797 121.148166 
L 244.126344 143.995436 
L 245.093891 137.764362 
L 246.061438 137.504734 
L 247.028985 122.965563 
L 247.996532 137.245106 
L 248.964078 118.551886 
L 249.931625 139.062503 
L 250.899172 135.42771 
L 251.866719 129.975521 
L 252.834266 115.955605 
L 253.801813 132.571801 
L 254.76936 127.119612 
L 255.736907 126.0811 
L 256.704454 139.062503 
L 257.672001 134.648826 
L 258.639548 126.0811 
L 259.607094 134.389198 
L 260.574641 135.42771 
L 261.542188 120.109654 
L 262.509735 137.245106 
L 263.477282 119.590398 
L 264.444829 128.158124 
L 265.412376 125.302215 
L 266.379923 112.320812 
L 267.34747 118.292258 
L 268.315017 130.494777 
L 269.282564 120.62891 
L 270.25011 122.705935 
L 271.217657 126.340728 
L 272.185204 112.320812 
L 273.152751 116.474861 
L 274.120298 110.763044 
L 275.087845 126.600356 
L 276.055392 100.637549 
L 277.022939 107.387879 
L 277.990486 120.369282 
L 278.958033 110.763044 
L 279.92558 110.763044 
L 280.893127 108.945647 
L 282.82822 113.359324 
L 283.795767 106.349367 
L 284.763314 107.128251 
L 285.730861 103.23383 
L 286.698408 107.128251 
L 287.665955 101.156805 
L 288.633502 100.377921 
L 289.601049 106.868623 
L 290.568596 107.387879 
L 291.536143 109.984159 
L 292.503689 103.23383 
L 293.471236 105.570482 
L 294.438783 117.513373 
L 295.40633 98.300897 
L 296.373877 100.377921 
L 297.341424 97.522012 
L 298.308971 100.118293 
L 299.276518 97.002756 
L 300.244065 95.18536 
L 301.211612 90.771683 
L 302.179159 103.493458 
L 303.146705 106.868623 
L 304.114252 97.522012 
L 305.081799 91.031311 
L 306.049346 108.945647 
L 307.016893 107.907135 
L 307.98444 101.156805 
L 308.951987 88.694658 
L 309.919534 107.128251 
L 310.887081 97.002756 
L 311.854628 93.108335 
L 312.822175 97.002756 
L 313.789721 94.406476 
L 314.757268 93.108335 
L 315.724815 87.396518 
L 316.692362 82.982841 
L 317.659909 89.73317 
L 318.627456 91.550567 
L 319.595003 94.925732 
L 320.56255 88.43503 
L 321.530097 97.78164 
L 322.497644 86.358005 
L 323.465191 84.800237 
L 324.432737 84.800237 
L 325.400284 90.252426 
L 326.367831 92.848707 
L 327.335378 93.627591 
L 328.302925 98.560525 
L 329.270472 100.637549 
L 330.238019 77.271023 
L 331.205566 82.723213 
L 332.173113 85.838749 
L 333.14066 78.569164 
L 334.108207 83.242469 
L 335.075753 86.617634 
L 336.0433 88.954286 
L 337.010847 88.694658 
L 337.978394 85.838749 
L 338.945941 81.944328 
L 339.913488 92.069823 
L 340.881035 78.569164 
L 341.848582 92.329451 
L 342.816129 90.512055 
L 343.783676 89.473542 
L 344.751223 93.627591 
L 345.718769 102.195317 
L 346.686316 94.146847 
L 348.62141 88.954286 
L 348.62141 88.954286 
" clip-path="url(#p39a4d3a8fe)" style="fill: none; stroke: #0e1cdd; stroke-width: 1.6; stroke-linecap: square"/>
   </g>
   <g id="line2d_25">
    <path d="M 127.365743 261.399484 
L 128.020715 252.260339 
L 129.041659 261.399484 
M 130.644389 261.399484 
L 130.923356 255.635504 
L 131.321141 261.399484 
M 134.278454 261.399484 
L 134.793543 252.000711 
L 135.691648 261.399484 
M 135.840744 261.399484 
L 136.728637 253.298852 
L 137.696184 257.193273 
L 138.663731 257.712529 
L 139.631278 246.80815 
L 140.598825 250.183315 
L 141.566372 250.183315 
L 142.533918 259.270297 
L 143.501465 248.10629 
L 144.469012 229.41307 
L 145.393064 261.399484 
M 145.493813 261.399484 
L 146.404106 237.46154 
L 147.371653 225.518649 
L 148.3392 234.865259 
L 149.306747 228.893813 
L 150.274294 242.913729 
L 151.241841 239.798192 
L 152.209388 240.05782 
L 153.176934 233.047863 
L 154.144481 239.798192 
L 155.112028 229.153442 
L 156.079575 228.893813 
L 157.047122 212.796873 
L 158.014669 224.739764 
L 158.982216 218.508691 
L 159.949763 221.3646 
L 160.91731 215.91241 
L 161.884857 206.825428 
L 162.852404 209.940965 
L 163.81995 215.133526 
L 164.787497 195.921049 
L 165.755044 215.91241 
L 166.722591 221.104972 
L 167.690138 225.259021 
L 168.657685 206.5658 
L 169.625232 206.5658 
L 170.592779 208.123568 
L 171.560326 220.585715 
L 172.527873 215.91241 
L 173.49542 203.190635 
L 174.462966 192.026628 
L 175.430513 200.334726 
L 176.39806 189.430348 
L 177.365607 198.776958 
L 178.333154 194.363281 
L 179.300701 205.786916 
L 180.268248 180.602993 
L 181.235795 192.026628 
L 182.203342 188.911091 
L 183.170889 180.602993 
L 184.138436 185.01667 
L 185.105982 176.448944 
L 186.073529 191.767 
L 187.041076 195.142165 
L 188.008623 191.507372 
L 188.97617 184.757042 
L 189.943717 172.554523 
L 190.911264 192.545884 
L 191.878811 180.083737 
L 192.846358 170.737127 
L 193.813905 180.602993 
L 194.781452 186.055183 
L 195.748998 165.804194 
L 196.716545 179.304853 
L 197.684092 156.197955 
L 198.651639 180.602993 
L 199.619186 169.438986 
L 200.586733 176.189316 
L 202.521827 162.169401 
L 203.489374 174.891176 
L 204.456921 172.554523 
L 205.424468 155.678699 
L 206.392014 158.794236 
L 207.359561 163.207913 
L 208.327108 168.400474 
L 209.294655 175.150804 
L 210.262202 165.804194 
L 211.229749 151.52465 
L 212.197296 145.812833 
L 213.164843 157.755724 
L 214.13239 160.092376 
L 215.099937 146.591717 
L 216.067484 161.130888 
L 217.03503 164.765681 
L 218.002577 151.005394 
L 218.970124 146.332089 
L 219.937671 146.332089 
L 220.905218 160.87126 
L 221.872765 161.650144 
L 222.840312 161.390516 
L 223.807859 140.101015 
L 224.775406 145.293576 
L 225.742953 152.043906 
L 226.7105 135.946966 
L 227.678046 140.620271 
L 228.645593 142.17804 
L 229.61314 155.419071 
L 230.580687 150.22651 
L 231.548234 147.630229 
L 232.515781 143.47618 
L 233.483328 149.447625 
L 234.450875 128.158124 
L 235.418422 136.72585 
L 236.385969 133.610313 
L 237.353516 153.342046 
L 238.321062 142.697296 
L 239.288609 144.255064 
L 240.256156 140.620271 
L 241.223703 138.802875 
L 242.19125 127.898496 
L 243.158797 129.715892 
L 244.126344 150.486138 
L 245.093891 138.283619 
L 246.061438 131.014033 
L 247.028985 128.158124 
L 247.996532 135.687338 
L 248.964078 120.369282 
L 250.899172 144.255064 
L 251.866719 138.283619 
L 252.834266 112.840068 
L 253.801813 125.302215 
L 254.76936 122.186679 
L 255.736907 126.340728 
L 256.704454 142.697296 
L 257.672001 118.292258 
L 258.639548 116.474861 
L 259.607094 130.494777 
L 260.574641 127.119612 
L 261.542188 117.773001 
L 262.509735 133.869941 
L 263.477282 119.071142 
L 264.444829 113.099696 
L 265.412376 123.744447 
L 266.379923 119.590398 
L 267.34747 121.407794 
L 268.315017 114.397837 
L 269.282564 113.359324 
L 270.25011 113.618952 
L 271.217657 114.657465 
L 272.185204 100.118293 
L 273.152751 106.349367 
L 274.120298 105.570482 
L 275.087845 119.850026 
L 276.055392 96.223872 
L 277.022939 104.53197 
L 277.990486 113.87858 
L 278.958033 103.23383 
L 279.92558 108.166763 
L 280.893127 108.426391 
L 281.860673 105.051226 
L 282.82822 113.618952 
L 283.795767 99.599037 
L 284.763314 109.724531 
L 285.730861 99.079781 
L 286.698408 109.205275 
L 287.665955 101.935689 
L 288.633502 95.964244 
L 289.601049 99.599037 
L 290.568596 97.262384 
L 291.536143 108.166763 
L 292.503689 91.550567 
L 293.471236 102.714574 
L 294.438783 105.83011 
L 295.40633 88.954286 
L 297.341424 99.858665 
L 298.308971 110.503416 
L 299.276518 102.454946 
L 300.244065 99.599037 
L 301.211612 90.252426 
L 302.179159 105.570482 
L 303.146705 108.426391 
L 304.114252 95.964244 
L 305.081799 95.18536 
L 306.049346 103.753086 
L 307.016893 93.367963 
L 307.98444 92.589079 
L 308.951987 93.627591 
L 309.919534 95.964244 
L 310.887081 104.012714 
L 311.854628 105.570482 
L 312.822175 100.637549 
L 314.757268 85.838749 
L 315.724815 95.704616 
L 316.692362 94.925732 
L 317.659909 94.925732 
L 318.627456 95.444988 
L 319.595003 86.098377 
L 320.56255 85.579121 
L 321.530097 93.108335 
L 322.497644 81.165444 
L 323.465191 92.329451 
L 324.432737 100.118293 
L 325.400284 88.175402 
L 326.367831 91.810195 
L 328.302925 97.262384 
L 329.270472 101.935689 
L 330.238019 74.674743 
L 331.205566 75.453627 
L 332.173113 76.492139 
L 333.14066 72.857346 
L 334.108207 80.126932 
L 335.075753 80.646188 
L 336.0433 82.463585 
L 337.010847 76.492139 
L 337.978394 89.213914 
L 338.945941 88.954286 
L 339.913488 86.617634 
L 340.881035 81.944328 
L 341.848582 89.213914 
L 342.816129 87.396518 
L 343.783676 84.800237 
L 344.751223 89.73317 
L 345.718769 89.73317 
L 346.686316 87.396518 
L 347.653863 84.540609 
L 348.62141 85.838749 
L 348.62141 85.838749 
" clip-path="url(#p39a4d3a8fe)" style="fill: none; stroke: #06d6a0; stroke-width: 1.6; stroke-linecap: square"/>
   </g>
   <g id="line2d_26">
    <path d="M 121.067712 261.399484 
L 121.247886 257.193273 
L 122.118728 261.399484 
M 122.795668 261.399484 
L 123.18298 261.087694 
L 124.150527 250.183315 
L 125.118074 258.491413 
L 126.085621 253.039224 
L 127.053168 242.913729 
L 128.020715 241.355961 
L 128.988262 221.883856 
L 129.589329 261.399484 
M 130.256101 261.399484 
L 130.923356 207.86394 
L 131.890902 242.134845 
L 132.858449 234.865259 
L 133.825996 237.721168 
L 134.793543 227.855301 
L 135.76109 221.624228 
L 136.728637 221.3646 
L 137.696184 213.835386 
L 138.663731 215.91241 
L 139.631278 231.749722 
L 140.598825 217.210551 
L 141.566372 209.16208 
L 142.533918 236.682655 
L 143.501465 211.239105 
L 144.469012 201.892495 
L 145.436559 228.114929 
L 146.404106 227.336045 
L 147.371653 198.51733 
L 148.3392 200.334726 
L 149.306747 204.488775 
L 150.274294 202.152123 
L 151.241841 208.123568 
L 152.209388 202.671379 
L 153.176934 214.873898 
L 154.144481 211.498733 
L 155.112028 205.527288 
L 156.079575 193.584397 
L 157.047122 172.554523 
L 158.014669 209.681337 
L 158.982216 175.929688 
L 159.949763 202.671379 
L 160.91731 194.882537 
L 161.884857 202.152123 
L 162.852404 179.045225 
L 163.81995 206.306172 
L 164.787497 172.035267 
L 165.755044 186.574439 
L 166.722591 176.189316 
L 167.690138 179.824109 
L 168.657685 176.448944 
L 169.625232 175.150804 
L 170.592779 199.036586 
L 171.560326 175.67006 
L 172.527873 182.939646 
L 173.49542 166.842706 
L 174.462966 164.246425 
L 175.430513 178.266341 
L 176.39806 154.640187 
L 177.365607 156.976839 
L 178.333154 164.765681 
L 179.300701 174.631548 
L 180.268248 160.611632 
L 181.235795 153.342046 
L 182.203342 157.496095 
L 183.170889 140.360643 
L 184.138436 149.187997 
L 185.105982 138.802875 
L 186.073529 162.688657 
L 187.041076 146.591717 
L 188.008623 159.832748 
L 188.97617 154.120931 
L 189.943717 152.563162 
L 190.911264 150.22651 
L 191.878811 140.360643 
L 192.846358 135.168082 
L 193.813905 146.591717 
L 194.781452 154.120931 
L 195.748998 134.389198 
L 196.716545 158.794236 
L 197.684092 138.543247 
L 198.651639 149.187997 
L 199.619186 155.678699 
L 200.586733 135.42771 
L 201.55428 124.782959 
L 202.521827 147.110973 
L 204.456921 135.168082 
L 205.424468 122.705935 
L 206.392014 124.782959 
L 207.359561 141.918412 
L 208.327108 144.77432 
L 209.294655 135.687338 
L 210.262202 136.466222 
L 211.229749 123.484819 
L 212.197296 120.109654 
L 213.164843 119.071142 
L 214.13239 134.648826 
L 215.099937 118.032629 
L 217.03503 133.091057 
L 218.002577 115.176721 
L 218.970124 119.33077 
L 219.937671 134.389198 
L 220.905218 125.561843 
L 221.872765 120.62891 
L 222.840312 125.821471 
L 223.807859 115.176721 
L 224.775406 119.850026 
L 225.742953 131.273661 
L 226.7105 105.310854 
L 227.678046 115.695977 
L 228.645593 104.272342 
L 229.61314 122.705935 
L 230.580687 113.099696 
L 231.548234 124.004075 
L 232.515781 119.071142 
L 233.483328 121.407794 
L 234.450875 99.339409 
L 235.418422 99.599037 
L 236.385969 106.349367 
L 237.353516 119.071142 
L 238.321062 97.78164 
L 239.288609 111.022672 
L 240.256156 108.166763 
L 241.223703 115.955605 
L 242.19125 95.18536 
L 243.158797 105.310854 
L 244.126344 109.205275 
L 245.093891 104.53197 
L 246.061438 104.53197 
L 247.028985 103.753086 
L 247.996532 105.310854 
L 248.964078 99.079781 
L 249.931625 99.079781 
L 250.899172 121.92705 
L 251.866719 104.272342 
L 253.801813 96.223872 
L 254.76936 95.444988 
L 255.736907 93.627591 
L 256.704454 101.676061 
L 257.672001 96.223872 
L 258.639548 81.165444 
L 259.607094 88.694658 
L 260.574641 93.108335 
L 261.542188 87.13689 
L 262.509735 96.4835 
L 263.477282 97.262384 
L 264.444829 97.262384 
L 265.412376 97.002756 
L 267.34747 83.502097 
L 268.315017 81.165444 
L 269.282564 85.059865 
L 270.25011 84.800237 
L 271.217657 96.223872 
L 272.185204 72.33809 
L 273.152751 66.885901 
L 275.087845 87.656146 
L 276.055392 76.492139 
L 277.022939 78.828792 
L 277.990486 90.252426 
L 278.958033 76.751767 
L 279.92558 80.646188 
L 280.893127 84.021353 
L 281.860673 71.03995 
L 282.82822 91.031311 
L 283.795767 80.126932 
L 284.763314 67.664785 
L 285.730861 71.818834 
L 286.698408 83.502097 
L 287.665955 60.654827 
L 288.633502 70.780322 
L 289.601049 71.03995 
L 290.568596 66.885901 
L 291.536143 84.021353 
L 292.503689 70.520693 
L 293.471236 76.232511 
L 294.438783 78.569164 
L 295.40633 63.510736 
L 296.373877 66.107016 
L 297.341424 64.549248 
L 298.308971 74.934371 
L 299.276518 68.962925 
L 300.244065 65.068504 
L 301.211612 57.53929 
L 302.179159 75.453627 
L 303.146705 72.597718 
L 304.114252 63.510736 
L 305.081799 64.808876 
L 306.049346 76.751767 
L 307.016893 63.770364 
L 307.98444 62.472223 
L 308.951987 58.837431 
L 309.919534 77.790279 
L 310.887081 74.415114 
L 311.854628 70.001437 
L 312.822175 72.078462 
L 313.789721 69.222553 
L 314.757268 65.068504 
L 315.724815 61.693339 
L 316.692362 53.904497 
L 317.659909 65.328132 
L 318.627456 73.376602 
L 319.595003 62.212595 
L 320.56255 59.875943 
L 321.530097 62.99148 
L 322.497644 59.356687 
L 323.465191 64.808876 
L 324.432737 71.299578 
L 325.400284 54.683381 
L 326.367831 55.981522 
L 327.335378 61.693339 
L 328.302925 73.376602 
L 329.270472 66.366644 
L 330.238019 43.519375 
L 331.205566 44.298259 
L 332.173113 48.19268 
L 333.14066 47.413796 
L 334.108207 47.154168 
L 335.075753 54.683381 
L 336.0433 49.49082 
L 337.010847 53.904497 
L 337.978394 55.462266 
L 338.945941 55.462266 
L 339.913488 55.981522 
L 340.881035 52.606357 
L 341.848582 55.202638 
L 342.816129 60.654827 
L 343.783676 55.721894 
L 344.751223 54.683381 
L 345.718769 67.664785 
L 346.686316 60.654827 
L 347.653863 61.952967 
L 348.62141 54.683381 
L 348.62141 54.683381 
" clip-path="url(#p39a4d3a8fe)" style="fill: none; stroke: #ef476f; stroke-width: 1.6; stroke-linecap: square"/>
   </g>
   <g id="legend_1">
    <g id="line2d_27">
     <path d="M 52.244617 16.766376 
L 58.244617 16.766376 
L 64.244617 16.766376 
" style="fill: none; stroke: #e49b0f; stroke-width: 2.2; stroke-linecap: square"/>
    </g>
    <g id="text_14">
     <!-- \textbf{+ FAF (LiteFA-Net-S)} -->
     <g transform="translate(66.644617 20.966376) scale(0.12 -0.12)">
      <defs>
       <path id="LMRoman12-Bold-2b" d="M 5197 1580 
C 5197 1760 5030 1760 4941 1760 
L 2976 1760 
L 2976 3770 
C 2976 3855 2976 4032 2803 4032 
C 2624 4032 2624 3862 2624 3770 
L 2624 1760 
L 653 1760 
C 563 1760 397 1760 397 1580 
C 397 1408 570 1408 653 1408 
L 2624 1408 
L 2624 -575 
C 2624 -659 2624 -832 2797 -832 
C 2976 -832 2976 -665 2976 -575 
L 2976 1408 
L 4941 1408 
C 5024 1408 5197 1408 5197 1580 
z
" transform="scale(0.015625)"/>
       <path id="LMRoman12-Bold-46" d="M 4218 2844 
L 4032 4352 
L 243 4352 
L 243 4076 
L 922 4076 
L 922 275 
L 243 275 
L 243 0 
C 429 12 1158 12 1395 12 
L 2618 0 
L 2618 275 
L 1766 275 
L 1766 2048 
L 2118 2048 
C 2733 2048 2784 1765 2784 1296 
L 3053 1296 
L 3053 3066 
L 2784 3066 
C 2784 2602 2733 2323 2118 2323 
L 1766 2323 
L 1766 4076 
L 2682 4076 
C 3699 4076 3859 3612 3949 2844 
L 4218 2844 
z
" transform="scale(0.015625)"/>
       <path id="LMRoman12-Bold-4c" d="M 4019 1737 
L 3750 1737 
C 3706 1293 3603 275 2451 275 
L 1766 275 
L 1766 4140 
L 2618 4140 
L 2618 4416 
L 1395 4403 
C 1158 4403 429 4403 243 4416 
L 243 4140 
L 922 4140 
L 922 275 
L 243 275 
L 243 0 
L 3834 0 
L 4019 1737 
z
" transform="scale(0.015625)"/>
       <path id="LMRoman12-Bold-69" d="M 1786 0 
L 1786 275 
L 1389 275 
L 1389 2880 
L 301 2835 
L 301 2560 
C 678 2560 723 2560 723 2309 
L 723 275 
L 282 275 
L 282 0 
C 429 12 870 12 1043 12 
C 1222 12 1632 12 1786 0 
z
M 1466 3891 
C 1466 4153 1248 4352 1005 4352 
C 742 4352 538 4140 538 3891 
C 538 3628 755 3430 998 3430 
C 1261 3430 1466 3641 1466 3891 
z
" transform="scale(0.015625)"/>
       <path id="LMRoman12-Bold-2d" d="M 1997 1139 
L 1997 1728 
L 77 1728 
L 77 1139 
L 1997 1139 
z
" transform="scale(0.015625)"/>
       <path id="LMRoman12-Bold-4e" d="M 5382 4140 
L 5382 4416 
C 5235 4403 4736 4403 4557 4403 
C 4378 4403 3872 4403 3725 4416 
L 3725 4140 
L 3872 4140 
C 4045 4140 4058 4140 4211 4121 
C 4397 4095 4403 4089 4403 3947 
L 4403 1254 
L 1856 4339 
C 1792 4409 1786 4416 1658 4416 
L 243 4416 
L 243 4140 
L 922 4140 
L 922 468 
C 922 326 915 320 749 294 
C 634 281 506 275 390 275 
L 243 275 
L 243 0 
C 390 12 890 12 1069 12 
C 1248 12 1754 12 1901 0 
L 1901 275 
L 1754 275 
C 1581 275 1568 275 1414 294 
C 1229 320 1222 326 1222 468 
L 1222 3921 
L 4390 83 
C 4461 6 4467 0 4550 0 
C 4704 0 4704 38 4704 185 
L 4704 3947 
C 4704 4089 4710 4095 4877 4121 
C 4992 4134 5120 4140 5235 4140 
L 5382 4140 
z
" transform="scale(0.015625)"/>
       <path id="LMRoman12-Bold-53" d="M 3597 1311 
C 3597 1905 3200 2466 2502 2622 
L 1626 2816 
C 992 2956 973 3421 973 3512 
C 973 3842 1184 4223 1805 4223 
C 2426 4223 2982 3919 3117 3072 
C 3136 2937 3136 2931 3258 2931 
C 3392 2931 3392 2950 3392 3097 
L 3392 4313 
C 3392 4435 3392 4480 3296 4480 
C 3251 4480 3232 4473 3174 4409 
L 2899 4094 
C 2739 4230 2419 4480 1798 4480 
C 883 4480 397 3900 397 3194 
C 397 2766 627 2473 717 2385 
C 1050 2061 1229 2024 1894 1880 
C 2534 1743 2611 1730 2752 1600 
C 2835 1516 3021 1337 3021 1005 
C 3021 725 2886 211 2170 211 
C 1606 211 717 406 666 1356 
C 659 1471 659 1491 531 1491 
C 397 1491 397 1471 397 1324 
L 397 102 
C 397 -20 397 -64 493 -64 
C 538 -64 544 -58 608 0 
C 678 70 736 153 896 315 
C 1267 19 1792 -64 2176 -64 
C 3174 -64 3597 621 3597 1311 
z
" transform="scale(0.015625)"/>
      </defs>
      <use xlink:href="#LMRoman12-Bold-2b" transform="scale(0.996264)"/>
      <use xlink:href="#LMRoman12-Bold-46" transform="translate(124.533001 0) scale(0.996264)"/>
      <use xlink:href="#LMRoman12-Bold-41" transform="translate(182.532073 0) scale(0.996264)"/>
      <use xlink:href="#LMRoman12-Bold-46" transform="translate(267.164667 0) scale(0.996264)"/>
      <use xlink:href="#LMRoman12-Bold-28" transform="translate(374.976939 0) scale(0.996264)"/>
      <use xlink:href="#LMRoman12-Bold-4c" transform="translate(418.563489 0) scale(0.996264)"/>
      <use xlink:href="#LMRoman12-Bold-69" transform="translate(485.902536 0) scale(0.996264)"/>
      <use xlink:href="#LMRoman12-Bold-74" transform="translate(517.035786 0) scale(0.996264)"/>
      <use xlink:href="#LMRoman12-Bold-65" transform="translate(560.622337 0) scale(0.996264)"/>
      <use xlink:href="#LMRoman12-Bold-46" transform="translate(611.763884 0) scale(0.996264)"/>
      <use xlink:href="#LMRoman12-Bold-41" transform="translate(669.762956 0) scale(0.996264)"/>
      <use xlink:href="#LMRoman12-Bold-2d" transform="translate(754.39555 0) scale(0.996264)"/>
      <use xlink:href="#LMRoman12-Bold-4e" transform="translate(791.75545 0) scale(0.996264)"/>
      <use xlink:href="#LMRoman12-Bold-65" transform="translate(879.385076 0) scale(0.996264)"/>
      <use xlink:href="#LMRoman12-Bold-74" transform="translate(930.526623 0) scale(0.996264)"/>
      <use xlink:href="#LMRoman12-Bold-2d" transform="translate(974.113174 0) scale(0.996264)"/>
      <use xlink:href="#LMRoman12-Bold-53" transform="translate(1011.473074 0) scale(0.996264)"/>
      <use xlink:href="#LMRoman12-Bold-29" transform="translate(1073.739575 0) scale(0.996264)"/>
     </g>
    </g>
    <g id="line2d_28">
     <path d="M 52.244617 34.155168 
L 58.244617 34.155168 
L 64.244617 34.155168 
" style="fill: none; stroke: #8338ec; stroke-width: 1.6; stroke-linecap: square"/>
    </g>
    <g id="text_15">
     <!-- \textbf{+ FARC} -->
     <g transform="translate(66.644617 38.355168) scale(0.12 -0.12)">
      <defs>
       <path id="LMRoman12-Bold-52" d="M 5344 603 
C 5344 712 5293 731 5210 731 
C 5088 731 5082 686 5075 603 
C 5043 282 4845 147 4666 147 
C 4256 147 4211 577 4160 1168 
C 4122 1508 4077 1983 3386 2195 
C 4250 2426 4461 2888 4461 3235 
C 4461 3877 3789 4416 2605 4416 
L 243 4416 
L 243 4140 
L 922 4140 
L 922 275 
L 243 275 
L 243 0 
C 429 12 1094 12 1325 12 
C 1555 12 2227 12 2413 0 
L 2413 275 
L 1734 275 
L 1734 2112 
L 2496 2112 
C 2752 2112 2957 2034 3098 1866 
C 3290 1646 3290 1504 3290 1070 
C 3290 637 3290 372 3616 153 
C 3949 -58 4474 -64 4614 -64 
C 5267 -64 5344 513 5344 603 
z
M 3558 3235 
C 3558 2882 3552 2323 2483 2323 
L 1734 2323 
L 1734 4140 
L 2496 4140 
C 3539 4140 3558 3614 3558 3235 
z
" transform="scale(0.015625)"/>
       <path id="LMRoman12-Bold-43" d="M 4794 1483 
C 4794 1593 4755 1600 4659 1600 
C 4595 1600 4531 1600 4525 1528 
C 4467 547 3642 211 3066 211 
C 2650 211 2086 327 1728 734 
C 1504 979 1299 1335 1299 2214 
C 1299 2835 1395 3302 1696 3660 
C 2106 4140 2746 4204 3053 4204 
C 3533 4204 4307 3936 4499 2809 
C 4512 2752 4570 2752 4646 2752 
C 4794 2752 4794 2764 4794 2918 
L 4794 4313 
C 4794 4460 4794 4480 4653 4480 
L 4173 4019 
C 3814 4326 3386 4480 2912 4480 
C 1382 4480 397 3552 397 2214 
C 397 895 1350 -64 2918 -64 
C 4058 -64 4794 721 4794 1483 
z
" transform="scale(0.015625)"/>
      </defs>
      <use xlink:href="#LMRoman12-Bold-2b" transform="scale(0.996264)"/>
      <use xlink:href="#LMRoman12-Bold-46" transform="translate(124.533001 0) scale(0.996264)"/>
      <use xlink:href="#LMRoman12-Bold-41" transform="translate(182.532073 0) scale(0.996264)"/>
      <use xlink:href="#LMRoman12-Bold-52" transform="translate(267.164667 0) scale(0.996264)"/>
      <use xlink:href="#LMRoman12-Bold-43" transform="translate(347.654578 0) scale(0.996264)"/>
     </g>
    </g>
    <g id="line2d_29">
     <path d="M 52.244617 50.879764 
L 58.244617 50.879764 
L 64.244617 50.879764 
" style="fill: none; stroke: #3a86ff; stroke-width: 1.6; stroke-linecap: square"/>
    </g>
    <g id="text_16">
     <!-- \textbf{+ FGConv} -->
     <g transform="translate(66.644617 55.079764) scale(0.12 -0.12)">
      <defs>
       <path id="LMRoman12-Bold-47" d="M 5293 1472 
L 5293 1747 
C 5139 1734 4454 1734 4250 1734 
L 3046 1747 
L 3046 1472 
L 3949 1472 
L 3949 825 
C 3949 692 3949 515 3693 356 
C 3565 274 3366 211 3098 211 
C 2733 211 2099 299 1702 762 
C 1453 1047 1299 1434 1299 2204 
C 1299 2866 1408 3317 1696 3657 
C 2106 4140 2746 4204 3053 4204 
C 3533 4204 4307 3934 4499 2802 
C 4512 2744 4570 2744 4646 2744 
C 4794 2744 4794 2757 4794 2911 
L 4794 4313 
C 4794 4460 4794 4480 4653 4480 
L 4173 4018 
C 3814 4326 3386 4480 2912 4480 
C 1382 4480 397 3548 397 2197 
C 397 882 1350 -64 2918 -64 
C 3347 -64 3853 32 4115 369 
C 4333 166 4698 12 4717 12 
C 4794 12 4794 76 4794 179 
L 4794 1472 
L 5293 1472 
z
" transform="scale(0.015625)"/>
       <path id="LMRoman12-Bold-6e" d="M 3840 0 
L 3840 275 
L 3398 275 
L 3398 1958 
C 3398 2566 3136 2880 2432 2880 
C 1971 2880 1574 2656 1357 2176 
L 1350 2176 
L 1350 2880 
L 269 2835 
L 269 2560 
C 666 2560 710 2560 710 2304 
L 710 275 
L 269 275 
L 269 0 
C 416 12 877 12 1056 12 
C 1235 12 1702 12 1850 0 
L 1850 275 
L 1408 275 
L 1408 1638 
C 1408 2329 1920 2668 2330 2668 
C 2566 2668 2701 2515 2701 2028 
L 2701 275 
L 2259 275 
L 2259 0 
C 2406 12 2867 12 3046 12 
C 3226 12 3693 12 3840 0 
z
" transform="scale(0.015625)"/>
       <path id="LMRoman12-Bold-76" d="M 3642 2540 
L 3642 2816 
C 3411 2803 3398 2803 3136 2803 
L 2586 2816 
L 2586 2540 
C 2758 2540 2899 2508 2899 2463 
C 2899 2463 2899 2451 2867 2386 
L 2118 738 
L 1293 2540 
L 1645 2540 
L 1645 2816 
C 1498 2803 1050 2803 877 2803 
C 691 2803 320 2803 154 2816 
L 154 2540 
L 557 2540 
L 1683 89 
C 1741 -32 1754 -64 1901 -64 
C 2003 -64 2054 -52 2112 77 
L 3168 2393 
C 3213 2489 3238 2540 3642 2540 
z
" transform="scale(0.015625)"/>
      </defs>
      <use xlink:href="#LMRoman12-Bold-2b" transform="scale(0.996264)"/>
      <use xlink:href="#LMRoman12-Bold-46" transform="translate(124.533001 0) scale(0.996264)"/>
      <use xlink:href="#LMRoman12-Bold-47" transform="translate(191.872048 0) scale(0.996264)"/>
      <use xlink:href="#LMRoman12-Bold-43" transform="translate(279.96665 0) scale(0.996264)"/>
      <use xlink:href="#LMRoman12-Bold-6f" transform="translate(360.913101 0) scale(0.996264)"/>
      <use xlink:href="#LMRoman12-Bold-6e" transform="translate(416.952952 0) scale(0.996264)"/>
      <use xlink:href="#LMRoman12-Bold-76" transform="translate(476.106127 0) scale(0.996264)"/>
     </g>
    </g>
    <g id="line2d_30">
     <path d="M 52.244617 67.60436 
L 58.244617 67.60436 
L 64.244617 67.60436 
" style="fill: none; stroke: #ef476f; stroke-width: 1.6; stroke-linecap: square"/>
    </g>
    <g id="text_17">
     <!-- \textbf{+ FSM} -->
     <g transform="translate(66.644617 71.80436) scale(0.12 -0.12)">
      <defs>
       <path id="LMRoman12-Bold-4d" d="M 6560 0 
L 6560 275 
L 5882 275 
L 5882 4140 
L 6560 4140 
L 6560 4416 
L 5197 4416 
C 5062 4416 5005 4416 4947 4281 
L 3411 816 
L 1875 4281 
C 1818 4416 1760 4416 1626 4416 
L 262 4416 
L 262 4140 
L 941 4140 
L 941 468 
C 941 326 934 320 768 294 
C 653 281 525 275 410 275 
L 262 275 
L 262 0 
C 410 12 909 12 1088 12 
C 1267 12 1773 12 1920 0 
L 1920 275 
L 1773 275 
C 1600 275 1587 275 1434 294 
C 1248 320 1242 326 1242 468 
L 1242 4063 
L 1248 4063 
L 2989 134 
C 3021 64 3059 0 3168 0 
C 3277 0 3315 64 3347 134 
L 5120 4140 
L 5126 4140 
L 5126 275 
L 4448 275 
L 4448 0 
C 4621 12 5286 12 5504 12 
C 5722 12 6387 12 6560 0 
z
" transform="scale(0.015625)"/>
      </defs>
      <use xlink:href="#LMRoman12-Bold-2b" transform="scale(0.996264)"/>
      <use xlink:href="#LMRoman12-Bold-46" transform="translate(124.533001 0) scale(0.996264)"/>
      <use xlink:href="#LMRoman12-Bold-53" transform="translate(194.985373 0) scale(0.996264)"/>
      <use xlink:href="#LMRoman12-Bold-4d" transform="translate(257.251873 0) scale(0.996264)"/>
     </g>
    </g>
    <g id="line2d_31">
     <path d="M 52.244617 84.895331 
L 58.244617 84.895331 
L 64.244617 84.895331 
" style="fill: none; stroke: #06d6a0; stroke-width: 1.6; stroke-linecap: square"/>
    </g>
    <g id="text_18">
     <!-- \textbf{+ NEB (Lite-Net-S)} -->
     <g transform="translate(66.644617 89.095331) scale(0.12 -0.12)">
      <defs>
       <path id="LMRoman12-Bold-42" d="M 4717 1184 
C 4717 1792 4186 2233 3411 2291 
C 4333 2465 4512 2997 4512 3303 
C 4512 3900 3974 4416 2950 4416 
L 250 4416 
L 250 4140 
L 928 4140 
L 928 275 
L 250 275 
L 250 0 
L 3142 0 
C 4198 0 4717 569 4717 1184 
z
M 3667 3309 
C 3667 2854 3418 2387 2669 2387 
L 1715 2387 
L 1715 4140 
L 2874 4140 
C 3533 4140 3667 3634 3667 3309 
z
M 3846 1196 
C 3846 793 3629 275 2893 275 
L 1715 275 
L 1715 2176 
L 2989 2176 
C 3738 2176 3846 1484 3846 1196 
z
" transform="scale(0.015625)"/>
      </defs>
      <use xlink:href="#LMRoman12-Bold-2b" transform="scale(0.996264)"/>
      <use xlink:href="#LMRoman12-Bold-4e" transform="translate(124.533001 0) scale(0.996264)"/>
      <use xlink:href="#LMRoman12-Bold-45" transform="translate(212.162627 0) scale(0.996264)"/>
      <use xlink:href="#LMRoman12-Bold-42" transform="translate(285.728323 0) scale(0.996264)"/>
      <use xlink:href="#LMRoman12-Bold-28" transform="translate(402.764459 0) scale(0.996264)"/>
      <use xlink:href="#LMRoman12-Bold-4c" transform="translate(446.35101 0) scale(0.996264)"/>
      <use xlink:href="#LMRoman12-Bold-69" transform="translate(513.690056 0) scale(0.996264)"/>
      <use xlink:href="#LMRoman12-Bold-74" transform="translate(544.823307 0) scale(0.996264)"/>
      <use xlink:href="#LMRoman12-Bold-65" transform="translate(588.409857 0) scale(0.996264)"/>
      <use xlink:href="#LMRoman12-Bold-2d" transform="translate(639.551405 0) scale(0.996264)"/>
      <use xlink:href="#LMRoman12-Bold-4e" transform="translate(676.911305 0) scale(0.996264)"/>
      <use xlink:href="#LMRoman12-Bold-65" transform="translate(764.54093 0) scale(0.996264)"/>
      <use xlink:href="#LMRoman12-Bold-74" transform="translate(815.682478 0) scale(0.996264)"/>
      <use xlink:href="#LMRoman12-Bold-2d" transform="translate(859.269028 0) scale(0.996264)"/>
      <use xlink:href="#LMRoman12-Bold-53" transform="translate(896.628929 0) scale(0.996264)"/>
      <use xlink:href="#LMRoman12-Bold-29" transform="translate(958.895429 0) scale(0.996264)"/>
     </g>
    </g>
    <g id="line2d_32">
     <path d="M 52.244617 102.284124 
L 58.244617 102.284124 
L 64.244617 102.284124 
" style="fill: none; stroke: #0e1cdd; stroke-width: 1.6; stroke-linecap: square"/>
    </g>
    <g id="text_19">
     <!-- \textbf{+ ECA} -->
     <g transform="translate(66.644617 106.484124) scale(0.12 -0.12)">
      <use xlink:href="#LMRoman12-Bold-2b" transform="scale(0.996264)"/>
      <use xlink:href="#LMRoman12-Bold-45" transform="translate(124.533001 0) scale(0.996264)"/>
      <use xlink:href="#LMRoman12-Bold-43" transform="translate(198.098698 0) scale(0.996264)"/>
      <use xlink:href="#LMRoman12-Bold-41" transform="translate(279.045149 0) scale(0.996264)"/>
     </g>
    </g>
    <g id="line2d_33">
     <path d="M 52.244617 119.008719 
L 58.244617 119.008719 
L 64.244617 119.008719 
" style="fill: none; stroke: #2e2e2e; stroke-width: 1.6; stroke-linecap: square"/>
    </g>
    <g id="text_20">
     <!-- \textbf{Base} -->
     <g transform="translate(66.644617 123.208719) scale(0.12 -0.12)">
      <use xlink:href="#LMRoman12-Bold-42" transform="scale(0.996264)"/>
      <use xlink:href="#LMRoman12-Bold-61" transform="translate(79.676235 0) scale(0.996264)"/>
      <use xlink:href="#LMRoman12-Bold-73" transform="translate(134.159424 0) scale(0.996264)"/>
      <use xlink:href="#LMRoman12-Bold-65" transform="translate(178.368578 0) scale(0.996264)"/>
     </g>
    </g>
   </g>
   <g id="line2d_34">
    <path d="M 116.25336 261.399484 
L 116.410152 255.635504 
L 117.236322 261.399484 
M 118.747856 261.399484 
L 119.312793 252.000711 
L 120.234532 261.399484 
M 120.300348 261.399484 
L 121.247886 239.278936 
L 122.215433 255.895132 
L 123.18298 250.183315 
L 124.150527 243.173357 
L 125.118074 250.442943 
L 126.085621 256.674016 
L 127.053168 240.577076 
L 128.020715 250.702571 
L 128.988262 224.480136 
L 129.955809 249.404431 
L 130.923356 206.306172 
L 131.890902 247.067778 
L 132.858449 229.41307 
L 133.825996 232.268978 
L 134.793543 221.3646 
L 135.76109 228.374557 
L 136.728637 229.153442 
L 137.696184 227.076417 
L 138.663731 211.758361 
L 139.631278 223.701252 
L 140.598825 214.873898 
L 141.566372 207.085056 
L 142.533918 218.768319 
L 143.501465 210.979477 
L 144.469012 209.16208 
L 145.436559 219.027947 
L 146.404106 207.86394 
L 147.371653 189.949604 
L 148.3392 196.180677 
L 150.274294 216.431666 
L 151.241841 189.689976 
L 152.209388 182.680018 
L 153.176934 216.172038 
L 154.144481 199.555842 
L 155.112028 194.622909 
L 156.079575 193.06514 
L 157.047122 164.506053 
L 158.014669 184.237786 
L 158.982216 173.073779 
L 159.949763 198.257702 
L 160.91731 172.294895 
L 161.884857 180.343365 
L 162.852404 176.189316 
L 163.81995 201.11361 
L 164.787497 168.140846 
L 165.755044 177.487456 
L 166.722591 175.929688 
L 167.690138 161.650144 
L 168.657685 179.045225 
L 169.625232 157.755724 
L 170.592779 161.909773 
L 171.560326 171.775639 
L 172.527873 164.506053 
L 173.49542 174.891176 
L 175.430513 152.82279 
L 176.39806 152.563162 
L 177.365607 144.255064 
L 179.300701 181.381877 
L 180.268248 157.496095 
L 181.235795 152.043906 
L 182.203342 151.52465 
L 183.170889 144.255064 
L 184.138436 140.101015 
L 185.105982 122.186679 
L 186.073529 163.207913 
L 187.041076 156.457583 
L 188.008623 145.293576 
L 188.97617 153.601674 
L 189.943717 136.72585 
L 190.911264 151.784278 
L 191.878811 127.119612 
L 192.846358 143.216552 
L 193.813905 131.533289 
L 194.781452 144.255064 
L 195.748998 134.389198 
L 196.716545 138.802875 
L 197.684092 153.861303 
L 198.651639 131.273661 
L 199.619186 145.033948 
L 200.586733 126.859984 
L 201.55428 135.168082 
L 202.521827 144.77432 
L 203.489374 140.620271 
L 204.456921 138.283619 
L 205.424468 112.061184 
L 206.392014 129.975521 
L 207.359561 127.898496 
L 208.327108 126.340728 
L 209.294655 126.0811 
L 210.262202 128.158124 
L 211.229749 93.887219 
L 214.13239 133.610313 
L 215.099937 106.089738 
L 216.067484 123.744447 
L 217.03503 118.551886 
L 218.002577 106.608995 
L 219.937671 127.37924 
L 220.905218 113.618952 
L 221.872765 109.464903 
L 222.840312 111.801556 
L 223.807859 104.53197 
L 224.775406 102.195317 
L 225.742953 111.2823 
L 226.7105 113.87858 
L 227.678046 115.436349 
L 228.645593 106.608995 
L 229.61314 116.734489 
L 230.580687 106.089738 
L 231.548234 104.272342 
L 232.515781 121.667422 
L 233.483328 119.850026 
L 234.450875 97.262384 
L 235.418422 97.522012 
L 236.385969 101.676061 
L 237.353516 116.734489 
L 238.321062 91.550567 
L 239.288609 95.444988 
L 240.256156 99.858665 
L 241.223703 93.887219 
L 242.19125 90.771683 
L 243.158797 87.13689 
L 244.126344 105.83011 
L 245.093891 92.069823 
L 246.061438 96.223872 
L 247.028985 93.108335 
L 247.996532 100.637549 
L 248.964078 92.069823 
L 249.931625 89.473542 
L 250.899172 97.262384 
L 251.866719 100.118293 
L 252.834266 80.126932 
L 253.801813 84.800237 
L 254.76936 85.579121 
L 255.736907 90.771683 
L 256.704454 97.522012 
L 257.672001 76.492139 
L 258.639548 83.761725 
L 259.607094 93.627591 
L 260.574641 76.751767 
L 261.542188 74.415114 
L 262.509735 86.358005 
L 263.477282 88.954286 
L 264.444829 98.300897 
L 265.412376 82.203956 
L 266.379923 78.569164 
L 267.34747 73.376602 
L 268.315017 81.425072 
L 269.282564 70.001437 
L 270.25011 75.972883 
L 271.217657 86.358005 
L 272.185204 74.155486 
L 273.152751 66.885901 
L 274.120298 82.463585 
L 275.087845 85.319493 
L 276.055392 69.222553 
L 277.022939 79.607676 
L 277.990486 85.059865 
L 278.958033 81.165444 
L 279.92558 72.078462 
L 280.893127 71.818834 
L 281.860673 67.664785 
L 282.82822 78.828792 
L 283.795767 69.741809 
L 284.763314 68.962925 
L 285.730861 61.433711 
L 286.698408 69.741809 
L 287.665955 65.328132 
L 288.633502 51.567845 
L 289.601049 61.174083 
L 290.568596 61.952967 
L 291.536143 68.184041 
L 292.503689 62.731852 
L 293.471236 72.078462 
L 295.40633 65.328132 
L 296.373877 61.174083 
L 297.341424 68.443669 
L 298.308971 68.443669 
L 299.276518 60.914455 
L 300.244065 67.145529 
L 301.211612 60.135571 
L 302.179159 66.107016 
L 303.146705 66.366644 
L 304.114252 52.346729 
L 305.081799 45.856027 
L 306.049346 64.28962 
L 307.016893 64.549248 
L 307.98444 60.135571 
L 308.951987 58.577802 
L 309.919534 59.875943 
L 310.887081 54.164125 
L 311.854628 60.654827 
L 312.822175 60.135571 
L 313.789721 52.087101 
L 314.757268 57.53929 
L 315.724815 55.981522 
L 316.692362 50.529332 
L 317.659909 47.673424 
L 318.627456 54.423753 
L 319.595003 57.020034 
L 320.56255 50.269704 
L 321.530097 52.606357 
L 322.497644 42.221234 
L 323.465191 52.087101 
L 324.432737 58.837431 
L 325.400284 50.529332 
L 326.367831 54.94301 
L 327.335378 60.135571 
L 328.302925 59.356687 
L 329.270472 61.693339 
L 330.238019 33.913136 
L 331.205566 39.884582 
L 332.173113 40.403838 
L 333.14066 42.221234 
L 334.108207 46.115655 
L 335.075753 38.586441 
L 336.0433 50.269704 
L 337.010847 44.557887 
L 337.978394 45.856027 
L 338.945941 48.452308 
L 339.913488 53.644869 
L 340.881035 54.683381 
L 341.848582 50.529332 
L 342.816129 47.154168 
L 343.783676 47.673424 
L 344.751223 53.644869 
L 345.718769 49.750448 
L 346.686316 49.49082 
L 347.653863 45.596399 
L 348.62141 52.606357 
L 348.62141 52.606357 
" clip-path="url(#p39a4d3a8fe)" style="fill: none; stroke: #3a86ff; stroke-width: 1.6; stroke-linecap: square"/>
   </g>
   <g id="line2d_35">
    <path d="M 111.567515 261.399484 
L 111.572417 261.087694 
L 111.580431 261.399484 
M 116.408668 261.399484 
L 116.410152 261.347322 
L 116.411813 261.399484 
M 118.253734 261.399484 
L 118.345246 258.231785 
L 118.738744 261.399484 
M 120.762346 261.399484 
L 121.247886 247.067778 
L 122.215433 259.789553 
L 123.18298 241.615589 
L 124.140486 261.399484 
M 124.19348 261.399484 
L 125.118074 256.933645 
L 126.085621 232.528606 
L 127.053168 229.153442 
L 128.020715 231.490094 
L 128.988262 218.249063 
L 129.955809 220.066459 
L 130.923356 206.046544 
L 131.890902 233.307491 
L 132.858449 246.029266 
L 133.825996 236.163399 
L 134.793543 218.508691 
L 135.76109 215.91241 
L 136.728637 245.769638 
L 137.696184 217.470179 
L 138.663731 220.326087 
L 139.631278 214.873898 
L 140.598825 225.518649 
L 141.566372 212.277617 
L 142.533918 228.114929 
L 143.501465 211.239105 
L 144.469012 205.786916 
L 145.436559 214.873898 
L 146.404106 201.11361 
L 147.371653 210.719849 
L 148.3392 190.728488 
L 149.306747 196.180677 
L 150.274294 205.527288 
L 151.241841 205.008031 
L 152.209388 194.363281 
L 153.176934 215.652782 
L 154.144481 189.689976 
L 155.112028 209.421709 
L 156.079575 173.852664 
L 157.047122 154.120931 
L 158.014669 185.535927 
L 158.982216 196.180677 
L 159.949763 180.602993 
L 160.91731 189.430348 
L 161.884857 182.160762 
L 162.852404 162.948285 
L 163.81995 193.844025 
L 164.787497 159.053864 
L 165.755044 195.921049 
L 166.722591 173.852664 
L 167.690138 186.314811 
L 169.625232 165.025309 
L 170.592779 170.217871 
L 171.560326 167.102334 
L 172.527873 171.775639 
L 173.49542 177.227828 
L 174.462966 153.861303 
L 175.430513 155.159443 
L 177.365607 159.832748 
L 178.333154 169.698615 
L 179.300701 171.256383 
L 180.268248 162.688657 
L 181.235795 165.804194 
L 182.203342 148.668741 
L 183.170889 138.023991 
L 184.138436 154.380559 
L 185.105982 120.62891 
L 186.073529 161.650144 
L 187.041076 141.399155 
L 188.008623 136.466222 
L 188.97617 147.889857 
L 189.943717 132.312173 
L 190.911264 149.707253 
L 191.878811 130.235149 
L 192.846358 138.802875 
L 193.813905 141.658783 
L 194.781452 149.966882 
L 195.748998 133.869941 
L 196.716545 147.630229 
L 197.684092 121.148166 
L 198.651639 138.023991 
L 199.619186 140.360643 
L 200.586733 140.101015 
L 202.521827 138.023991 
L 203.489374 133.091057 
L 204.456921 139.841387 
L 205.424468 114.657465 
L 206.392014 133.869941 
L 207.359561 143.47618 
L 208.327108 144.77432 
L 209.294655 136.466222 
L 210.262202 113.099696 
L 211.229749 106.608995 
L 212.197296 114.917093 
L 213.164843 111.801556 
L 214.13239 115.176721 
L 215.099937 106.089738 
L 216.067484 109.464903 
L 217.03503 126.600356 
L 218.002577 100.118293 
L 218.970124 109.464903 
L 219.937671 131.792917 
L 220.905218 117.253745 
L 221.872765 122.446307 
L 222.840312 120.888538 
L 223.807859 101.156805 
L 224.775406 102.454946 
L 225.742953 102.714574 
L 226.7105 86.877262 
L 227.678046 106.089738 
L 228.645593 97.522012 
L 229.61314 123.744447 
L 230.580687 115.436349 
L 231.548234 111.541928 
L 232.515781 100.377921 
L 233.483328 115.176721 
L 234.450875 99.858665 
L 235.418422 104.791598 
L 236.385969 94.666104 
L 237.353516 112.061184 
L 238.321062 98.820153 
L 239.288609 99.079781 
L 240.256156 98.560525 
L 241.223703 88.694658 
L 242.19125 99.858665 
L 243.158797 87.396518 
L 244.126344 114.397837 
L 245.093891 93.887219 
L 246.061438 86.098377 
L 247.028985 80.38656 
L 247.996532 101.156805 
L 248.964078 79.348048 
L 249.931625 86.877262 
L 250.899172 99.858665 
L 251.866719 82.723213 
L 253.801813 91.031311 
L 254.76936 80.646188 
L 256.704454 96.4835 
L 257.672001 82.463585 
L 258.639548 72.33809 
L 259.607094 88.694658 
L 260.574641 85.579121 
L 261.542188 77.271023 
L 262.509735 89.213914 
L 263.477282 85.838749 
L 264.444829 84.540609 
L 265.412376 95.964244 
L 266.379923 79.867304 
L 267.34747 84.800237 
L 268.315017 79.08842 
L 269.282564 74.934371 
L 270.25011 77.790279 
L 271.217657 75.972883 
L 272.185204 80.905816 
L 273.152751 63.251108 
L 274.120298 78.828792 
L 275.087845 76.232511 
L 276.055392 60.135571 
L 277.022939 75.713255 
L 277.990486 80.126932 
L 278.958033 70.780322 
L 279.92558 73.63623 
L 280.893127 69.482181 
L 281.860673 66.366644 
L 282.82822 73.116974 
L 283.795767 64.029992 
L 284.763314 72.857346 
L 285.730861 56.760406 
L 286.698408 60.135571 
L 287.665955 61.174083 
L 288.633502 50.788961 
L 289.601049 69.222553 
L 290.568596 61.433711 
L 291.536143 70.780322 
L 292.503689 53.125613 
L 293.471236 63.251108 
L 294.438783 58.058546 
L 295.40633 48.452308 
L 297.341424 66.626273 
L 299.276518 60.395199 
L 300.244065 48.711936 
L 301.211612 45.596399 
L 302.179159 69.222553 
L 303.146705 56.760406 
L 304.114252 46.89454 
L 305.081799 44.298259 
L 306.049346 61.174083 
L 307.016893 57.798918 
L 307.98444 53.125613 
L 308.951987 59.616315 
L 309.919534 63.251108 
L 310.887081 52.865985 
L 312.822175 62.472223 
L 313.789721 55.981522 
L 314.757268 52.865985 
L 315.724815 49.231192 
L 316.692362 50.788961 
L 317.659909 41.961606 
L 318.627456 45.077143 
L 319.595003 43.519375 
L 320.56255 42.74049 
L 321.530097 49.231192 
L 322.497644 35.470905 
L 324.432737 50.529332 
L 325.400284 46.634911 
L 326.367831 46.89454 
L 327.335378 50.269704 
L 328.302925 54.423753 
L 329.270472 48.452308 
L 330.238019 26.124294 
L 331.205566 26.383922 
L 332.173113 25.864666 
L 333.14066 32.614996 
L 334.108207 38.067185 
L 335.075753 31.836112 
L 336.0433 41.44235 
L 337.010847 35.211277 
L 337.978394 34.432392 
L 338.945941 38.326813 
L 339.913488 39.624954 
L 340.881035 41.44235 
L 341.848582 35.730533 
L 342.816129 33.39388 
L 343.783676 39.105698 
L 344.751223 41.961606 
L 345.718769 42.74049 
L 346.686316 38.586441 
L 347.653863 39.365326 
L 348.62141 48.452308 
L 348.62141 48.452308 
" clip-path="url(#p39a4d3a8fe)" style="fill: none; stroke: #8338ec; stroke-width: 1.6; stroke-linecap: square"/>
   </g>
   <g id="line2d_36">
    <path d="M 113.307721 261.399484 
L 113.507511 251.481455 
L 113.785415 261.399484 
M 115.286762 261.399484 
L 115.442605 256.674016 
L 116.410152 252.779596 
L 117.377699 236.942284 
L 118.345246 233.307491 
L 119.312793 233.047863 
L 120.28034 240.317448 
L 121.247886 237.980796 
L 122.215433 242.913729 
L 123.18298 245.250382 
L 124.150527 237.201912 
L 125.118074 226.816789 
L 126.085621 232.00935 
L 128.020715 219.547203 
L 128.988262 200.075098 
L 129.955809 222.143484 
L 130.923356 201.632867 
L 131.890902 237.201912 
L 132.858449 225.518649 
L 133.825996 224.480136 
L 134.793543 194.103653 
L 135.76109 210.460221 
L 136.728637 201.632867 
L 137.696184 197.478818 
L 138.663731 203.450263 
L 139.631278 227.076417 
L 140.598825 211.498733 
L 141.566372 209.421709 
L 142.533918 198.776958 
L 143.501465 202.931007 
L 144.469012 200.075098 
L 145.436559 206.825428 
L 146.404106 194.103653 
L 147.371653 178.266341 
L 148.3392 176.9682 
L 149.306747 198.776958 
L 150.274294 207.604312 
L 151.241841 198.776958 
L 152.209388 184.237786 
L 153.176934 200.334726 
L 154.144481 167.881218 
L 155.112028 196.699933 
L 156.079575 182.42039 
L 157.047122 151.52465 
L 158.014669 186.834067 
L 158.982216 167.102334 
L 159.949763 198.257702 
L 161.884857 172.554523 
L 162.852404 161.390516 
L 163.81995 181.641506 
L 164.787497 164.765681 
L 165.755044 183.199274 
L 166.722591 165.284937 
L 167.690138 162.429029 
L 168.657685 161.650144 
L 169.625232 178.525969 
L 170.592779 173.852664 
L 171.560326 163.207913 
L 172.527873 166.583078 
L 173.49542 169.438986 
L 174.462966 164.246425 
L 175.430513 146.332089 
L 176.39806 150.22651 
L 177.365607 158.534608 
L 178.333154 153.342046 
L 179.300701 158.27498 
L 180.268248 143.216552 
L 181.235795 138.543247 
L 182.203342 143.995436 
L 183.170889 125.561843 
L 184.138436 139.322131 
L 185.105982 136.72585 
L 186.073529 151.005394 
L 187.041076 139.841387 
L 188.008623 134.908454 
L 188.97617 144.255064 
L 189.943717 126.0811 
L 190.911264 155.159443 
L 191.878811 131.792917 
L 192.846358 131.273661 
L 193.813905 135.687338 
L 194.781452 155.419071 
L 195.748998 127.37924 
L 196.716545 138.802875 
L 197.684092 123.484819 
L 198.651639 132.312173 
L 199.619186 128.67738 
L 200.586733 107.907135 
L 201.55428 109.724531 
L 202.521827 139.062503 
L 203.489374 112.061184 
L 204.456921 140.879899 
L 205.424468 107.907135 
L 206.392014 125.302215 
L 207.359561 107.647507 
L 208.327108 126.0811 
L 209.294655 119.850026 
L 210.262202 123.744447 
L 211.229749 100.897177 
L 212.197296 111.2823 
L 213.164843 107.647507 
L 214.13239 112.840068 
L 215.099937 102.195317 
L 216.067484 131.273661 
L 217.03503 114.397837 
L 218.002577 108.686019 
L 218.970124 94.666104 
L 219.937671 121.667422 
L 220.905218 107.128251 
L 221.872765 110.763044 
L 222.840312 107.907135 
L 223.807859 99.079781 
L 224.775406 105.051226 
L 225.742953 108.426391 
L 226.7105 91.031311 
L 227.678046 98.820153 
L 228.645593 101.416433 
L 229.61314 106.349367 
L 230.580687 89.73317 
L 231.548234 100.637549 
L 232.515781 110.243788 
L 233.483328 104.012714 
L 234.450875 88.175402 
L 235.418422 91.550567 
L 236.385969 94.146847 
L 237.353516 93.627591 
L 238.321062 87.13689 
L 239.288609 81.425072 
L 240.256156 98.041268 
L 241.223703 93.627591 
L 242.19125 91.810195 
L 243.158797 86.617634 
L 244.126344 93.887219 
L 245.093891 74.674743 
L 246.061438 98.041268 
L 247.028985 77.271023 
L 247.996532 86.877262 
L 248.964078 68.184041 
L 249.931625 80.126932 
L 250.899172 99.079781 
L 251.866719 80.38656 
L 252.834266 80.126932 
L 253.801813 80.646188 
L 254.76936 69.482181 
L 255.736907 77.790279 
L 256.704454 94.406476 
L 257.672001 69.741809 
L 258.639548 71.03995 
L 259.607094 79.08842 
L 260.574641 76.492139 
L 261.542188 65.068504 
L 262.509735 73.376602 
L 263.477282 93.627591 
L 264.444829 78.569164 
L 265.412376 77.790279 
L 266.379923 72.857346 
L 267.34747 74.934371 
L 268.315017 74.934371 
L 269.282564 67.664785 
L 270.25011 68.703297 
L 271.217657 89.473542 
L 273.152751 58.318174 
L 275.087845 75.193999 
L 276.055392 52.606357 
L 277.022939 62.99148 
L 277.990486 71.559206 
L 278.958033 61.433711 
L 279.92558 64.28962 
L 280.893127 71.03995 
L 281.860673 62.212595 
L 282.82822 60.395199 
L 283.795767 64.029992 
L 284.763314 53.125613 
L 285.730861 50.010076 
L 286.698408 57.279662 
L 287.665955 60.654827 
L 288.633502 50.529332 
L 289.601049 62.472223 
L 290.568596 55.981522 
L 291.536143 55.721894 
L 292.503689 52.346729 
L 293.471236 62.212595 
L 294.438783 57.279662 
L 295.40633 55.202638 
L 296.373877 47.673424 
L 297.341424 60.135571 
L 298.308971 66.885901 
L 299.276518 55.462266 
L 300.244065 52.865985 
L 301.211612 47.933052 
L 302.179159 58.058546 
L 303.146705 60.395199 
L 304.114252 50.788961 
L 305.081799 53.644869 
L 306.049346 62.212595 
L 307.016893 54.423753 
L 307.98444 48.19268 
L 309.919534 57.279662 
L 310.887081 51.567845 
L 311.854628 49.49082 
L 312.822175 59.097059 
L 313.789721 47.673424 
L 314.757268 39.884582 
L 315.724815 44.817515 
L 316.692362 37.547929 
L 317.659909 45.077143 
L 318.627456 45.596399 
L 319.595003 35.990161 
L 320.56255 41.182722 
L 321.530097 47.673424 
L 322.497644 39.365326 
L 323.465191 42.74049 
L 324.432737 41.182722 
L 325.400284 37.807557 
L 326.367831 39.365326 
L 327.335378 42.221234 
L 328.302925 43.779003 
L 329.270472 38.586441 
L 330.238019 18.59508 
L 331.205566 18.075824 
L 332.173113 26.124294 
L 333.14066 21.710617 
L 334.108207 28.201319 
L 335.075753 32.355368 
L 336.0433 31.576484 
L 337.010847 24.826154 
L 337.978394 34.432392 
L 338.945941 32.355368 
L 339.913488 36.509417 
L 340.881035 39.105698 
L 341.848582 42.74049 
L 342.816129 32.614996 
L 343.783676 30.018715 
L 344.751223 34.432392 
L 345.718769 39.365326 
L 346.686316 29.759087 
L 347.653863 40.403838 
L 348.62141 39.365326 
L 348.62141 39.365326 
" clip-path="url(#p39a4d3a8fe)" style="fill: none; stroke: #e49b0f; stroke-width: 2.2; stroke-linecap: square"/>
   </g>
  </g>
 </g>
 <defs>
  <clipPath id="p39a4d3a8fe">
   <rect x="47.714321" y="9.508098" width="313.485199" height="207.702452"/>
  </clipPath>
 </defs>
</svg>
