<?xml version="1.0" encoding="utf-8" standalone="no"?>
<!DOCTYPE svg PUBLIC "-//W3C//DTD SVG 1.1//EN"
  "http://www.w3.org/Graphics/SVG/1.1/DTD/svg11.dtd">
<svg xmlns:xlink="http://www.w3.org/1999/xlink" width="368.39952pt" height="260.399484pt" viewBox="0 0 368.39952 260.399484" xmlns="http://www.w3.org/2000/svg" version="1.1">
 <metadata>
  <rdf:RDF xmlns:dc="http://purl.org/dc/elements/1.1/" xmlns:cc="http://creativecommons.org/ns#" xmlns:rdf="http://www.w3.org/1999/02/22-rdf-syntax-ns#">
   <cc:Work>
    <dc:type rdf:resource="http://purl.org/dc/dcmitype/StillImage"/>
    <dc:date>2026-03-14T15:55:20.631155</dc:date>
    <dc:format>image/svg+xml</dc:format>
    <dc:creator>
     <cc:Agent>
      <dc:title>Matplotlib v3.10.0, https://matplotlib.org/</dc:title>
     </cc:Agent>
    </dc:creator>
   </cc:Work>
  </rdf:RDF>
 </metadata>
 <defs>
  <style type="text/css">*{stroke-linejoin: round; stroke-linecap: butt}</style>
 </defs>
 <g id="figure_1">
  <g id="patch_1">
   <path d="M 0 260.399484 
L 368.39952 260.399484 
L 368.39952 -0 
L 0 -0 
z
" style="fill: #ffffff"/>
  </g>
  <g id="axes_1">
   <g id="patch_2">
    <path d="M 47.714321 217.210551 
L 361.19952 217.210551 
L 361.19952 9.508098 
L 47.714321 9.508098 
z
" style="fill: #ffffff"/>
   </g>
   <g id="patch_3">
    <path d="M 47.714321 217.210551 
L 47.714321 9.508098 
" style="fill: none; stroke: #000000; stroke-linejoin: miter; stroke-linecap: square"/>
   </g>
   <g id="patch_4">
    <path d="M 361.19952 217.210551 
L 361.19952 9.508098 
" style="fill: none; stroke: #000000; stroke-linejoin: miter; stroke-linecap: square"/>
   </g>
   <g id="patch_5">
    <path d="M 47.714321 217.210551 
L 361.19952 217.210551 
" style="fill: none; stroke: #000000; stroke-linejoin: miter; stroke-linecap: square"/>
   </g>
   <g id="patch_6">
    <path d="M 47.714321 9.508098 
L 361.19952 9.508098 
" style="fill: none; stroke: #000000; stroke-linejoin: miter; stroke-linecap: square"/>
   </g>
   <g id="matplotlib.axis_1">
    <g id="xtick_1">
     <g id="line2d_1">
      <path d="M 59.324884 217.210551 
L 59.324884 9.508098 
" clip-path="url(#pa5221f3f88)" style="fill: none; stroke-dasharray: 2.96,1.28; stroke-dashoffset: 0; stroke: #b0b0b0; stroke-opacity: 0.35; stroke-width: 0.8"/>
     </g>
     <g id="line2d_2">
      <defs>
       <path id="m237645920f" d="M 0 0 
L 0 3.5 
" style="stroke: #000000; stroke-width: 0.8"/>
      </defs>
      <g>
       <use xlink:href="#m237645920f" x="59.324884" y="217.210551" style="stroke: #000000; stroke-width: 0.8"/>
      </g>
     </g>
     <g id="text_1">
      <!-- $\mathdefault{0}$ -->
      <g transform="translate(55.682294 233.259259) scale(0.13 -0.13)">
       <defs>
        <path id="LMRoman12-Bold-30" d="M 3309 2060 
C 3309 2677 3309 4224 1798 4224 
C 282 4224 282 2683 282 2060 
C 282 1444 282 -64 1792 -64 
C 3302 -64 3309 1424 3309 2060 
z
M 2541 2137 
C 2541 622 2445 532 2253 339 
C 2125 211 1952 147 1798 147 
C 1594 147 1440 230 1312 365 
C 1152 526 1050 628 1050 2137 
C 1050 2587 1050 2998 1101 3331 
C 1190 3967 1651 4012 1792 4012 
C 1997 4012 2394 3916 2483 3376 
C 2541 3049 2541 2529 2541 2137 
z
" transform="scale(0.015625)"/>
       </defs>
       <use xlink:href="#LMRoman12-Bold-30" transform="scale(0.996264)"/>
      </g>
     </g>
    </g>
    <g id="xtick_2">
     <g id="line2d_3">
      <path d="M 117.377699 217.210551 
L 117.377699 9.508098 
" clip-path="url(#pa5221f3f88)" style="fill: none; stroke-dasharray: 2.96,1.28; stroke-dashoffset: 0; stroke: #b0b0b0; stroke-opacity: 0.35; stroke-width: 0.8"/>
     </g>
     <g id="line2d_4">
      <g>
       <use xlink:href="#m237645920f" x="117.377699" y="217.210551" style="stroke: #000000; stroke-width: 0.8"/>
      </g>
     </g>
     <g id="text_2">
      <!-- $\mathdefault{20}$ -->
      <g transform="translate(110.092518 233.259259) scale(0.13 -0.13)">
       <defs>
        <path id="LMRoman12-Bold-32" d="M 3232 1378 
L 2963 1378 
C 2944 1243 2899 864 2803 800 
C 2752 755 2253 755 2157 755 
L 1165 755 
L 2086 1519 
C 2797 2052 3232 2379 3232 2995 
C 3232 3759 2547 4224 1702 4224 
C 979 4224 358 3806 358 3187 
C 358 2848 634 2752 781 2752 
C 979 2752 1210 2886 1210 3180 
C 1210 3449 1011 3584 813 3610 
C 1069 3921 1408 3948 1542 3948 
C 2131 3948 2413 3449 2413 2988 
C 2413 2488 2074 2026 1811 1750 
L 422 294 
C 358 236 358 224 358 108 
L 358 0 
L 3046 0 
L 3232 1378 
z
" transform="scale(0.015625)"/>
       </defs>
       <use xlink:href="#LMRoman12-Bold-32" transform="scale(0.996264)"/>
       <use xlink:href="#LMRoman12-Bold-30" transform="translate(56.039851 0) scale(0.996264)"/>
      </g>
     </g>
    </g>
    <g id="xtick_3">
     <g id="line2d_5">
      <path d="M 175.430513 217.210551 
L 175.430513 9.508098 
" clip-path="url(#pa5221f3f88)" style="fill: none; stroke-dasharray: 2.96,1.28; stroke-dashoffset: 0; stroke: #b0b0b0; stroke-opacity: 0.35; stroke-width: 0.8"/>
     </g>
     <g id="line2d_6">
      <g>
       <use xlink:href="#m237645920f" x="175.430513" y="217.210551" style="stroke: #000000; stroke-width: 0.8"/>
      </g>
     </g>
     <g id="text_3">
      <!-- $\mathdefault{40}$ -->
      <g transform="translate(168.145333 233.259259) scale(0.13 -0.13)">
       <defs>
        <path id="LMRoman12-Bold-34" d="M 3392 0 
L 3392 275 
L 2771 275 
L 2771 1004 
L 3392 1004 
L 3392 1280 
L 2771 1280 
L 2771 4037 
C 2771 4198 2765 4224 2605 4224 
C 2490 4224 2477 4224 2400 4127 
L 198 1280 
L 198 1004 
L 2016 1004 
L 2016 275 
L 1318 275 
L 1318 0 
C 1504 12 2138 12 2368 12 
C 2586 12 3219 12 3392 0 
z
M 2074 1280 
L 493 1280 
L 2074 3324 
L 2074 1280 
z
" transform="scale(0.015625)"/>
       </defs>
       <use xlink:href="#LMRoman12-Bold-34" transform="scale(0.996264)"/>
       <use xlink:href="#LMRoman12-Bold-30" transform="translate(56.039851 0) scale(0.996264)"/>
      </g>
     </g>
    </g>
    <g id="xtick_4">
     <g id="line2d_7">
      <path d="M 233.483328 217.210551 
L 233.483328 9.508098 
" clip-path="url(#pa5221f3f88)" style="fill: none; stroke-dasharray: 2.96,1.28; stroke-dashoffset: 0; stroke: #b0b0b0; stroke-opacity: 0.35; stroke-width: 0.8"/>
     </g>
     <g id="line2d_8">
      <g>
       <use xlink:href="#m237645920f" x="233.483328" y="217.210551" style="stroke: #000000; stroke-width: 0.8"/>
      </g>
     </g>
     <g id="text_4">
      <!-- $\mathdefault{60}$ -->
      <g transform="translate(226.198147 233.259259) scale(0.13 -0.13)">
       <defs>
        <path id="LMRoman12-Bold-36" d="M 3290 1334 
C 3290 2232 2669 2707 1907 2707 
C 1779 2707 1370 2707 1114 2162 
L 1114 2335 
C 1114 2727 1133 3142 1312 3488 
C 1453 3756 1779 3993 2195 3993 
C 2317 3993 2547 3975 2701 3827 
C 2458 3801 2355 3622 2355 3449 
C 2355 3219 2528 3072 2733 3072 
C 2899 3072 3110 3180 3110 3462 
C 3110 3845 2854 4224 2182 4224 
C 1382 4224 301 3737 301 2046 
C 301 1616 301 -64 1818 -64 
C 2662 -64 3290 435 3290 1334 
z
M 2477 1340 
C 2477 705 2477 192 1811 192 
C 1402 192 1242 538 1216 589 
C 1126 801 1126 1315 1126 1372 
C 1126 2162 1466 2496 1843 2496 
C 2477 2496 2477 1982 2477 1340 
z
" transform="scale(0.015625)"/>
       </defs>
       <use xlink:href="#LMRoman12-Bold-36" transform="scale(0.996264)"/>
       <use xlink:href="#LMRoman12-Bold-30" transform="translate(56.039851 0) scale(0.996264)"/>
      </g>
     </g>
    </g>
    <g id="xtick_5">
     <g id="line2d_9">
      <path d="M 291.536143 217.210551 
L 291.536143 9.508098 
" clip-path="url(#pa5221f3f88)" style="fill: none; stroke-dasharray: 2.96,1.28; stroke-dashoffset: 0; stroke: #b0b0b0; stroke-opacity: 0.35; stroke-width: 0.8"/>
     </g>
     <g id="line2d_10">
      <g>
       <use xlink:href="#m237645920f" x="291.536143" y="217.210551" style="stroke: #000000; stroke-width: 0.8"/>
      </g>
     </g>
     <g id="text_5">
      <!-- $\mathdefault{80}$ -->
      <g transform="translate(284.250962 233.259259) scale(0.13 -0.13)">
       <defs>
        <path id="LMRoman12-Bold-38" d="M 3290 1193 
C 3290 1893 2739 2195 2413 2375 
C 2733 2542 3091 2780 3091 3280 
C 3091 3942 2502 4224 1805 4224 
C 954 4224 499 3736 499 3113 
C 499 2767 672 2381 1146 2131 
C 422 1810 301 1367 301 1033 
C 301 294 941 -64 1786 -64 
C 2733 -64 3290 448 3290 1193 
z
M 2637 3280 
C 2637 3017 2522 2741 2157 2529 
L 1261 3036 
C 1133 3107 954 3255 954 3467 
C 954 3980 1638 3993 1786 3993 
C 2330 3993 2637 3704 2637 3280 
z
M 2778 866 
C 2778 352 2266 192 1805 192 
C 1171 192 813 532 813 1039 
C 813 1508 1101 1803 1408 1977 
L 2291 1469 
C 2502 1347 2778 1193 2778 866 
z
" transform="scale(0.015625)"/>
       </defs>
       <use xlink:href="#LMRoman12-Bold-38" transform="scale(0.996264)"/>
       <use xlink:href="#LMRoman12-Bold-30" transform="translate(56.039851 0) scale(0.996264)"/>
      </g>
     </g>
    </g>
    <g id="xtick_6">
     <g id="line2d_11">
      <path d="M 349.588957 217.210551 
L 349.588957 9.508098 
" clip-path="url(#pa5221f3f88)" style="fill: none; stroke-dasharray: 2.96,1.28; stroke-dashoffset: 0; stroke: #b0b0b0; stroke-opacity: 0.35; stroke-width: 0.8"/>
     </g>
     <g id="line2d_12">
      <g>
       <use xlink:href="#m237645920f" x="349.588957" y="217.210551" style="stroke: #000000; stroke-width: 0.8"/>
      </g>
     </g>
     <g id="text_6">
      <!-- $\mathdefault{100}$ -->
      <g transform="translate(338.661186 233.259259) scale(0.13 -0.13)">
       <defs>
        <path id="LMRoman12-Bold-31" d="M 3091 0 
L 3091 275 
L 2214 275 
L 2214 4029 
C 2214 4224 2202 4224 1997 4224 
C 1523 3795 813 3795 672 3795 
L 550 3795 
L 550 3520 
L 672 3520 
C 896 3520 1235 3558 1491 3641 
L 1491 275 
L 602 275 
L 602 0 
L 1843 12 
L 3091 0 
z
" transform="scale(0.015625)"/>
       </defs>
       <use xlink:href="#LMRoman12-Bold-31" transform="scale(0.996264)"/>
       <use xlink:href="#LMRoman12-Bold-30" transform="translate(56.039851 0) scale(0.996264)"/>
       <use xlink:href="#LMRoman12-Bold-30" transform="translate(112.079701 0) scale(0.996264)"/>
      </g>
     </g>
    </g>
    <g id="text_7">
     <!-- \textbf{Epoch} -->
     <g transform="translate(181.427041 250.292857) scale(0.15 -0.15)">
      <defs>
       <path id="LMRoman12-Bold-45" d="M 4518 1717 
L 4250 1717 
C 4115 770 3878 275 2765 275 
L 1766 275 
L 1766 2112 
L 2144 2112 
C 2758 2112 2822 1851 2822 1368 
L 3091 1368 
L 3091 3138 
L 2822 3138 
C 2822 2657 2758 2387 2144 2387 
L 1766 2387 
L 1766 4076 
L 2765 4076 
C 3744 4076 3955 3661 4051 2837 
L 4320 2837 
L 4134 4352 
L 243 4352 
L 243 4076 
L 922 4076 
L 922 275 
L 243 275 
L 243 0 
L 4243 0 
L 4518 1717 
z
" transform="scale(0.015625)"/>
       <path id="LMRoman12-Bold-70" d="M 3750 1427 
C 3750 2310 3155 2880 2291 2880 
C 1914 2880 1587 2751 1331 2547 
L 1331 2880 
L 224 2835 
L 224 2560 
C 621 2560 666 2560 666 2307 
L 666 -1005 
L 224 -1005 
L 224 -1280 
C 371 -1268 832 -1268 1011 -1268 
C 1190 -1268 1658 -1268 1805 -1280 
L 1805 -1005 
L 1363 -1005 
L 1363 238 
C 1523 96 1805 -64 2189 -64 
C 3066 -64 3750 471 3750 1418 
L 3750 1427 
z
M 2982 1418 
C 2982 478 2522 147 2112 147 
C 1837 147 1562 289 1363 594 
L 1363 2242 
C 1600 2547 1939 2649 2189 2649 
C 2605 2649 2982 2271 2982 1427 
L 2982 1418 
z
" transform="scale(0.015625)"/>
       <path id="LMRoman12-Bold-6f" d="M 3392 1379 
C 3392 2245 2803 2880 1798 2880 
C 755 2880 198 2213 198 1379 
C 198 538 787 -64 1792 -64 
C 2835 -64 3392 570 3392 1379 
z
M 2624 1443 
C 2624 910 2624 166 1798 166 
C 966 166 966 917 966 1443 
C 966 1744 966 2065 1088 2296 
C 1229 2553 1517 2668 1792 2668 
C 2157 2668 2387 2495 2496 2315 
C 2624 2084 2624 1751 2624 1443 
z
" transform="scale(0.015625)"/>
       <path id="LMRoman12-Bold-63" d="M 2995 724 
C 2995 801 2925 801 2861 801 
C 2758 801 2752 795 2720 718 
C 2675 596 2502 166 1914 166 
C 1011 166 1011 1141 1011 1430 
C 1011 1808 1018 2649 1856 2649 
C 1901 2649 2278 2636 2278 2604 
C 2278 2604 2272 2591 2259 2585 
C 2240 2566 2157 2469 2157 2309 
C 2157 2039 2374 1930 2534 1930 
C 2669 1930 2912 2014 2912 2315 
C 2912 2841 2176 2880 1830 2880 
C 691 2880 243 2136 243 1398 
C 243 525 851 -64 1792 -64 
C 2797 -64 2995 679 2995 724 
z
" transform="scale(0.015625)"/>
       <path id="LMRoman12-Bold-68" d="M 3840 0 
L 3840 275 
L 3398 275 
L 3398 1964 
C 3398 2567 3136 2880 2432 2880 
C 1786 2880 1472 2429 1382 2240 
L 1376 2240 
L 1376 4480 
L 269 4416 
L 269 4140 
C 666 4140 710 4140 710 3885 
L 710 275 
L 269 275 
L 269 0 
C 416 12 877 12 1056 12 
C 1235 12 1702 12 1850 0 
L 1850 275 
L 1408 275 
L 1408 1638 
C 1408 2329 1920 2668 2330 2668 
C 2566 2668 2701 2515 2701 2028 
L 2701 275 
L 2259 275 
L 2259 0 
C 2406 12 2867 12 3046 12 
C 3226 12 3693 12 3840 0 
z
" transform="scale(0.015625)"/>
      </defs>
      <use xlink:href="#LMRoman12-Bold-45" transform="scale(0.996264)"/>
      <use xlink:href="#LMRoman12-Bold-70" transform="translate(73.565697 0) scale(0.996264)"/>
      <use xlink:href="#LMRoman12-Bold-6f" transform="translate(138.945522 0) scale(0.996264)"/>
      <use xlink:href="#LMRoman12-Bold-63" transform="translate(198.098698 0) scale(0.996264)"/>
      <use xlink:href="#LMRoman12-Bold-68" transform="translate(244.798573 0) scale(0.996264)"/>
     </g>
    </g>
   </g>
   <g id="matplotlib.axis_2">
    <g id="ytick_1">
     <g id="line2d_13">
      <path d="M 47.714321 199.902013 
L 361.19952 199.902013 
" clip-path="url(#pa5221f3f88)" style="fill: none; stroke-dasharray: 2.96,1.28; stroke-dashoffset: 0; stroke: #b0b0b0; stroke-opacity: 0.35; stroke-width: 0.8"/>
     </g>
     <g id="line2d_14">
      <defs>
       <path id="m0764b51d73" d="M 0 0 
L -3.5 0 
" style="stroke: #000000; stroke-width: 0.8"/>
      </defs>
      <g>
       <use xlink:href="#m0764b51d73" x="47.714321" y="199.902013" style="stroke: #000000; stroke-width: 0.8"/>
      </g>
     </g>
     <g id="text_8">
      <!-- $\mathdefault{62}$ -->
      <g transform="translate(26.14396 204.426367) scale(0.13 -0.13)">
       <use xlink:href="#LMRoman12-Bold-36" transform="scale(0.996264)"/>
       <use xlink:href="#LMRoman12-Bold-32" transform="translate(56.039851 0) scale(0.996264)"/>
      </g>
     </g>
    </g>
    <g id="ytick_2">
     <g id="line2d_15">
      <path d="M 47.714321 165.284937 
L 361.19952 165.284937 
" clip-path="url(#pa5221f3f88)" style="fill: none; stroke-dasharray: 2.96,1.28; stroke-dashoffset: 0; stroke: #b0b0b0; stroke-opacity: 0.35; stroke-width: 0.8"/>
     </g>
     <g id="line2d_16">
      <g>
       <use xlink:href="#m0764b51d73" x="47.714321" y="165.284937" style="stroke: #000000; stroke-width: 0.8"/>
      </g>
     </g>
     <g id="text_9">
      <!-- $\mathdefault{66}$ -->
      <g transform="translate(26.14396 169.809292) scale(0.13 -0.13)">
       <use xlink:href="#LMRoman12-Bold-36" transform="scale(0.996264)"/>
       <use xlink:href="#LMRoman12-Bold-36" transform="translate(56.039851 0) scale(0.996264)"/>
      </g>
     </g>
    </g>
    <g id="ytick_3">
     <g id="line2d_17">
      <path d="M 47.714321 130.667862 
L 361.19952 130.667862 
" clip-path="url(#pa5221f3f88)" style="fill: none; stroke-dasharray: 2.96,1.28; stroke-dashoffset: 0; stroke: #b0b0b0; stroke-opacity: 0.35; stroke-width: 0.8"/>
     </g>
     <g id="line2d_18">
      <g>
       <use xlink:href="#m0764b51d73" x="47.714321" y="130.667862" style="stroke: #000000; stroke-width: 0.8"/>
      </g>
     </g>
     <g id="text_10">
      <!-- $\mathdefault{70}$ -->
      <g transform="translate(26.14396 135.192216) scale(0.13 -0.13)">
       <defs>
        <path id="LMRoman12-Bold-37" d="M 3488 4147 
L 2138 4147 
C 2093 4147 1139 4179 1062 4192 
C 902 4217 890 4288 877 4352 
L 608 4352 
L 397 2768 
L 666 2768 
C 672 2833 723 3282 832 3353 
C 890 3392 1421 3392 1523 3392 
L 2682 3392 
C 1939 2486 1856 2383 1658 2004 
C 1280 1259 1222 681 1222 366 
C 1222 -64 1549 -64 1600 -64 
C 1760 -64 1850 19 1894 64 
C 1978 167 1978 244 1978 526 
C 1978 1509 2067 2229 2470 2711 
L 3430 3859 
C 3488 3923 3488 3936 3488 4147 
z
" transform="scale(0.015625)"/>
       </defs>
       <use xlink:href="#LMRoman12-Bold-37" transform="scale(0.996264)"/>
       <use xlink:href="#LMRoman12-Bold-30" transform="translate(56.039851 0) scale(0.996264)"/>
      </g>
     </g>
    </g>
    <g id="ytick_4">
     <g id="line2d_19">
      <path d="M 47.714321 96.050787 
L 361.19952 96.050787 
" clip-path="url(#pa5221f3f88)" style="fill: none; stroke-dasharray: 2.96,1.28; stroke-dashoffset: 0; stroke: #b0b0b0; stroke-opacity: 0.35; stroke-width: 0.8"/>
     </g>
     <g id="line2d_20">
      <g>
       <use xlink:href="#m0764b51d73" x="47.714321" y="96.050787" style="stroke: #000000; stroke-width: 0.8"/>
      </g>
     </g>
     <g id="text_11">
      <!-- $\mathdefault{74}$ -->
      <g transform="translate(26.14396 100.575141) scale(0.13 -0.13)">
       <use xlink:href="#LMRoman12-Bold-37" transform="scale(0.996264)"/>
       <use xlink:href="#LMRoman12-Bold-34" transform="translate(56.039851 0) scale(0.996264)"/>
      </g>
     </g>
    </g>
    <g id="ytick_5">
     <g id="line2d_21">
      <path d="M 47.714321 61.433711 
L 361.19952 61.433711 
" clip-path="url(#pa5221f3f88)" style="fill: none; stroke-dasharray: 2.96,1.28; stroke-dashoffset: 0; stroke: #b0b0b0; stroke-opacity: 0.35; stroke-width: 0.8"/>
     </g>
     <g id="line2d_22">
      <g>
       <use xlink:href="#m0764b51d73" x="47.714321" y="61.433711" style="stroke: #000000; stroke-width: 0.8"/>
      </g>
     </g>
     <g id="text_12">
      <!-- $\mathdefault{78}$ -->
      <g transform="translate(26.14396 65.958066) scale(0.13 -0.13)">
       <use xlink:href="#LMRoman12-Bold-37" transform="scale(0.996264)"/>
       <use xlink:href="#LMRoman12-Bold-38" transform="translate(56.039851 0) scale(0.996264)"/>
      </g>
     </g>
    </g>
    <g id="ytick_6">
     <g id="line2d_23">
      <path d="M 47.714321 26.816636 
L 361.19952 26.816636 
" clip-path="url(#pa5221f3f88)" style="fill: none; stroke-dasharray: 2.96,1.28; stroke-dashoffset: 0; stroke: #b0b0b0; stroke-opacity: 0.35; stroke-width: 0.8"/>
     </g>
     <g id="line2d_24">
      <g>
       <use xlink:href="#m0764b51d73" x="47.714321" y="26.816636" style="stroke: #000000; stroke-width: 0.8"/>
      </g>
     </g>
     <g id="text_13">
      <!-- $\mathdefault{82}$ -->
      <g transform="translate(26.14396 31.34099) scale(0.13 -0.13)">
       <use xlink:href="#LMRoman12-Bold-38" transform="scale(0.996264)"/>
       <use xlink:href="#LMRoman12-Bold-32" transform="translate(56.039851 0) scale(0.996264)"/>
      </g>
     </g>
    </g>
    <g id="text_14">
     <!-- \textbf{Test Accuracy (\%)} -->
     <g transform="translate(18.40797 182.020272) rotate(-90) scale(0.15 -0.15)">
      <defs>
       <path id="LMRoman12-Bold-54" d="M 4736 2828 
L 4608 4352 
L 390 4352 
L 262 2828 
L 531 2828 
C 589 3530 640 4076 1562 4076 
L 2080 4076 
L 2080 275 
L 1114 275 
L 1114 0 
L 2502 12 
L 3891 0 
L 3891 275 
L 2925 275 
L 2925 4076 
L 3437 4076 
C 4358 4076 4410 3536 4467 2828 
L 4736 2828 
z
" transform="scale(0.015625)"/>
       <path id="LMRoman12-Bold-65" d="M 3078 731 
C 3078 829 2982 829 2944 829 
C 2842 829 2835 809 2797 725 
C 2630 302 2208 166 1901 166 
C 973 166 966 1043 966 1408 
L 2893 1408 
C 3040 1408 3078 1408 3078 1568 
C 3078 1758 3034 2232 2739 2529 
C 2470 2796 2112 2880 1741 2880 
C 742 2880 198 2232 198 1433 
C 198 523 858 -64 1824 -64 
C 2790 -64 3078 621 3078 731 
z
M 2490 1593 
L 966 1593 
C 979 1852 986 2099 1120 2327 
C 1242 2529 1466 2668 1741 2668 
C 2426 2668 2483 1909 2490 1593 
z
" transform="scale(0.015625)"/>
       <path id="LMRoman12-Bold-73" d="M 2592 880 
C 2592 1190 2426 1392 2298 1501 
C 2035 1707 1818 1744 1472 1805 
C 1062 1871 678 1938 678 2240 
C 678 2687 1248 2687 1382 2687 
C 2093 2687 2131 2208 2144 2048 
C 2150 1969 2202 1969 2278 1969 
C 2413 1969 2413 1987 2413 2131 
L 2413 2713 
C 2413 2835 2413 2880 2317 2880 
C 2278 2880 2266 2880 2170 2822 
C 2144 2803 2074 2758 2042 2739 
C 1862 2841 1626 2880 1395 2880 
C 1203 2880 243 2880 243 2017 
C 243 1379 1037 1246 1235 1216 
C 1408 1183 1619 1145 1645 1145 
C 1901 1087 2157 925 2157 651 
C 2157 147 1574 147 1440 147 
C 1114 147 710 251 531 886 
C 493 1017 486 1023 378 1023 
C 243 1023 243 1004 243 853 
L 243 102 
C 243 -20 243 -64 339 -64 
C 384 -64 397 -64 525 38 
L 691 160 
C 979 -64 1325 -64 1440 -64 
C 1792 -64 2592 12 2592 880 
z
" transform="scale(0.015625)"/>
       <path id="LMRoman12-Bold-74" d="M 2394 768 
L 2394 1107 
L 2125 1107 
L 2125 774 
C 2125 352 1933 166 1734 166 
C 1350 166 1350 595 1350 742 
L 1350 2540 
L 2272 2540 
L 2272 2816 
L 1350 2816 
L 1350 4032 
L 1082 4032 
C 1075 3401 768 2771 134 2751 
L 134 2540 
L 653 2540 
L 653 761 
C 653 83 1178 -64 1638 -64 
C 2112 -64 2394 294 2394 768 
z
" transform="scale(0.015625)"/>
       <path id="LMRoman12-Bold-41" d="M 5184 0 
L 5184 275 
L 4576 275 
L 2931 4333 
C 2886 4447 2874 4480 2720 4480 
C 2560 4480 2547 4447 2502 4333 
L 915 429 
C 870 326 870 313 691 294 
C 531 275 506 275 365 275 
L 250 275 
L 250 0 
C 416 12 800 12 986 12 
C 1158 12 1626 12 1773 0 
L 1773 275 
C 1632 275 1389 275 1210 346 
C 1229 404 1229 416 1242 442 
L 1581 1280 
L 3296 1280 
L 3699 275 
L 3098 275 
L 3098 0 
C 3302 12 3923 12 4166 12 
C 4371 12 5024 12 5184 0 
z
M 3181 1555 
L 1690 1555 
L 2438 3394 
L 3181 1555 
z
" transform="scale(0.015625)"/>
       <path id="LMRoman12-Bold-75" d="M 3840 0 
L 3840 275 
C 3443 275 3398 275 3398 524 
L 3398 2880 
L 2259 2835 
L 2259 2560 
C 2656 2560 2701 2560 2701 2307 
L 2701 1035 
C 2701 542 2413 147 1914 147 
C 1434 147 1408 309 1408 666 
L 1408 2880 
L 269 2835 
L 269 2560 
C 666 2560 710 2560 710 2307 
L 710 769 
C 710 121 1139 -64 1824 -64 
C 1978 -64 2451 -64 2726 458 
L 2733 458 
L 2733 -64 
L 3840 0 
z
" transform="scale(0.015625)"/>
       <path id="LMRoman12-Bold-72" d="M 2733 2374 
C 2733 2700 2400 2880 2093 2880 
C 1587 2880 1370 2438 1280 2169 
L 1274 2169 
L 1274 2880 
L 224 2835 
L 224 2560 
C 621 2560 666 2560 666 2309 
L 666 275 
L 224 275 
L 224 0 
C 371 12 851 12 1030 12 
C 1216 12 1734 12 1888 0 
L 1888 275 
L 1331 275 
L 1331 1443 
C 1331 1651 1376 2668 2125 2668 
C 2035 2598 1990 2489 1990 2374 
C 1990 2111 2202 2003 2362 2003 
C 2522 2003 2733 2111 2733 2374 
z
" transform="scale(0.015625)"/>
       <path id="LMRoman12-Bold-61" d="M 3462 115 
C 3462 249 3405 249 3315 249 
C 2912 256 2912 358 2912 506 
L 2912 1892 
C 2912 2482 2445 2880 1542 2880 
C 1184 2880 429 2847 429 2309 
C 429 2039 634 1924 806 1924 
C 998 1924 1184 2059 1184 2302 
C 1184 2424 1139 2540 1030 2610 
C 1242 2668 1395 2668 1517 2668 
C 1952 2668 2214 2424 2214 1898 
L 2214 1642 
C 1203 1642 186 1359 186 647 
C 186 64 928 -64 1370 -64 
C 1862 -64 2176 204 2304 487 
C 2304 275 2304 0 2950 0 
L 3277 0 
C 3411 0 3462 0 3462 140 
L 3462 115 
z
M 2214 889 
C 2214 288 1677 172 1472 172 
C 1158 172 896 384 896 678 
C 896 1260 1587 1459 2214 1491 
L 2214 889 
z
" transform="scale(0.015625)"/>
       <path id="LMRoman12-Bold-79" d="M 3642 2540 
L 3642 2816 
C 3424 2803 3398 2803 3136 2803 
L 2586 2816 
L 2586 2540 
C 2586 2540 2893 2540 2893 2457 
C 2893 2438 2874 2400 2867 2381 
L 2118 780 
L 1299 2540 
L 1651 2540 
L 1651 2816 
C 1498 2803 1062 2803 883 2803 
C 698 2803 320 2803 154 2816 
L 154 2540 
L 563 2540 
L 1747 -8 
C 1715 -84 1626 -269 1594 -345 
C 1459 -631 1254 -1069 806 -1069 
C 781 -1069 704 -1069 634 -1031 
C 646 -1025 838 -949 838 -707 
C 838 -497 685 -364 493 -364 
C 294 -364 141 -497 141 -713 
C 141 -1012 422 -1280 806 -1280 
C 1331 -1280 1677 -809 1805 -529 
L 3168 2400 
C 3206 2489 3232 2540 3642 2540 
z
" transform="scale(0.015625)"/>
       <path id="LMRoman12-Bold-28" d="M 2394 -1524 
C 2394 -1498 2394 -1485 2272 -1370 
C 1555 -654 1280 471 1280 1596 
C 1280 2856 1594 3892 2310 4614 
C 2387 4691 2394 4697 2394 4723 
C 2394 4800 2317 4800 2285 4800 
C 2227 4800 2214 4800 2048 4665 
C 1126 3930 691 2754 691 1603 
C 691 426 1133 -718 2042 -1460 
C 2208 -1600 2221 -1600 2285 -1600 
C 2317 -1600 2394 -1600 2394 -1524 
z
" transform="scale(0.015625)"/>
       <path id="LMRoman12-Bold-25" d="M 4992 4640 
C 4992 4755 4902 4819 4819 4819 
C 4736 4819 4698 4774 4627 4691 
C 4314 4320 3885 4140 3379 4140 
C 2925 4140 2438 4300 2022 4614 
C 1888 4710 1741 4819 1472 4819 
C 947 4819 397 4428 397 3532 
C 397 2592 979 2240 1472 2240 
C 1952 2240 2394 2636 2394 3526 
C 2394 3692 2381 3961 2285 4204 
C 2541 4076 2925 3936 3392 3936 
C 3661 3936 3930 3980 4160 4083 
L 4166 4076 
L 1069 -13 
C 1024 -71 998 -103 998 -161 
C 998 -263 1082 -340 1178 -340 
C 1261 -340 1299 -289 1344 -231 
L 4922 4492 
C 4973 4563 4992 4582 4992 4640 
z
M 5594 947 
C 5594 1875 5126 2240 4672 2240 
C 4147 2240 3597 1849 3597 953 
C 3597 12 4179 -340 4672 -340 
C 5152 -340 5594 57 5594 947 
z
M 2125 3532 
C 2125 2675 1734 2451 1491 2451 
C 1024 2451 1024 3110 1024 3526 
C 1024 3948 1024 4608 1491 4608 
C 1754 4608 2125 4352 2125 3532 
z
M 5325 953 
C 5325 95 4934 -129 4691 -129 
C 4224 -129 4224 531 4224 947 
C 4224 1369 4224 2028 4691 2028 
C 4954 2028 5325 1772 5325 953 
z
" transform="scale(0.015625)"/>
       <path id="LMRoman12-Bold-29" d="M 2099 1596 
C 2099 2773 1658 3917 749 4659 
C 582 4800 570 4800 506 4800 
C 474 4800 397 4800 397 4723 
C 397 4697 397 4684 518 4569 
C 1235 3853 1510 2728 1510 1603 
C 1510 343 1197 -693 480 -1415 
C 403 -1492 397 -1498 397 -1524 
C 397 -1600 474 -1600 506 -1600 
C 563 -1600 576 -1600 742 -1466 
C 1664 -731 2099 445 2099 1596 
z
" transform="scale(0.015625)"/>
      </defs>
      <use xlink:href="#LMRoman12-Bold-54" transform="scale(0.996264)"/>
      <use xlink:href="#LMRoman12-Bold-65" transform="translate(68.609444 0) scale(0.996264)"/>
      <use xlink:href="#LMRoman12-Bold-73" transform="translate(119.750992 0) scale(0.996264)"/>
      <use xlink:href="#LMRoman12-Bold-74" transform="translate(163.960146 0) scale(0.996264)"/>
      <use xlink:href="#LMRoman12-Bold-41" transform="translate(244.906597 0) scale(0.996264)"/>
      <use xlink:href="#LMRoman12-Bold-63" transform="translate(326.425866 0) scale(0.996264)"/>
      <use xlink:href="#LMRoman12-Bold-63" transform="translate(376.239067 0) scale(0.996264)"/>
      <use xlink:href="#LMRoman12-Bold-75" transform="translate(426.052267 0) scale(0.996264)"/>
      <use xlink:href="#LMRoman12-Bold-72" transform="translate(488.318768 0) scale(0.996264)"/>
      <use xlink:href="#LMRoman12-Bold-61" transform="translate(534.097127 0) scale(0.996264)"/>
      <use xlink:href="#LMRoman12-Bold-63" transform="translate(588.580315 0) scale(0.996264)"/>
      <use xlink:href="#LMRoman12-Bold-79" transform="translate(638.393515 0) scale(0.996264)"/>
      <use xlink:href="#LMRoman12-Bold-28" transform="translate(734.906591 0) scale(0.996264)"/>
      <use xlink:href="#LMRoman12-Bold-25" transform="translate(778.493142 0) scale(0.996264)"/>
      <use xlink:href="#LMRoman12-Bold-29" transform="translate(871.892892 0) scale(0.996264)"/>
     </g>
    </g>
   </g>
   <g id="line2d_25">
    <path d="M 93.630434 261.399484 
L 94.156573 257.885614 
L 97.059214 254.423907 
L 99.961854 240.230906 
L 102.864495 235.038344 
L 105.767136 230.884295 
L 108.669777 224.826307 
L 111.572417 219.633746 
L 114.475058 216.691294 
L 117.377699 208.383196 
L 120.28034 210.806392 
L 123.18298 196.26722 
L 126.085621 197.824988 
L 128.988262 190.036146 
L 131.890902 180.17028 
L 134.793543 180.516451 
L 137.696184 189.863061 
L 140.598825 178.612511 
L 143.501465 167.188877 
L 146.404106 170.650584 
L 149.306747 169.438986 
L 152.209388 166.496535 
L 155.112028 165.111852 
L 158.014669 163.554084 
L 160.91731 163.900254 
L 163.81995 159.400035 
L 166.722591 150.745766 
L 169.625232 148.841827 
L 172.527873 138.629789 
L 175.430513 143.303095 
L 178.333154 143.995436 
L 181.235795 140.187558 
L 184.138436 128.763923 
L 187.041076 128.937008 
L 189.943717 126.513813 
L 192.846358 127.898496 
L 195.748998 118.724971 
L 198.651639 119.590398 
L 201.55428 120.801996 
L 204.456921 114.570922 
L 207.359561 110.589958 
L 210.262202 110.070702 
L 213.164843 107.128251 
L 216.067484 102.628031 
L 218.970124 102.974202 
L 221.872765 103.666543 
L 224.775406 95.53153 
L 227.678046 103.839629 
L 230.580687 94.839189 
L 233.483328 95.53153 
L 236.385969 85.319493 
L 239.288609 82.203956 
L 242.19125 85.838749 
L 245.093891 84.454066 
L 247.996532 80.992359 
L 250.899172 79.08842 
L 253.801813 73.203517 
L 256.704454 70.261065 
L 259.607094 72.165005 
L 262.509735 72.857346 
L 265.412376 68.184041 
L 268.315017 69.914895 
L 271.217657 65.241589 
L 274.120298 62.99148 
L 277.022939 61.779882 
L 279.92558 65.241589 
L 282.82822 64.376163 
L 285.730861 57.972004 
L 288.633502 60.914455 
L 291.536143 59.529772 
L 294.438783 52.606357 
L 297.341424 59.010516 
L 300.244065 55.721894 
L 303.146705 55.894979 
L 306.049346 55.375723 
L 308.951987 53.125613 
L 311.854628 52.087101 
L 314.757268 52.087101 
L 317.659909 55.029552 
L 320.56255 53.99104 
L 323.465191 52.087101 
L 326.367831 52.952528 
L 329.270472 51.394759 
L 332.173113 52.433272 
L 335.075753 50.010076 
L 337.978394 50.529332 
L 340.881035 52.087101 
L 343.783676 52.433272 
L 346.686316 50.183162 
" clip-path="url(#pa5221f3f88)" style="fill: none; stroke: #2e2e2e; stroke-width: 1.6; stroke-linecap: square"/>
   </g>
   <g id="line2d_26">
    <path d="M 112.710374 261.399484 
L 114.475058 254.770077 
L 117.377699 246.981235 
L 120.28034 235.5576 
L 123.18298 232.095893 
L 126.085621 218.768319 
L 128.988262 214.095014 
L 131.890902 206.998513 
L 134.793543 204.921489 
L 137.696184 193.497854 
L 140.598825 189.343805 
L 143.501465 188.478378 
L 146.404106 185.362841 
L 149.306747 183.112731 
L 152.209388 179.997194 
L 155.112028 171.342926 
L 158.014669 171.516011 
L 160.91731 168.746645 
L 163.81995 160.611632 
L 166.722591 164.07334 
L 169.625232 153.861303 
L 172.527873 159.053864 
L 175.430513 154.553644 
L 178.333154 155.0729 
L 181.235795 158.015352 
L 184.138436 151.438107 
L 187.041076 147.457144 
L 189.943717 148.149485 
L 192.846358 151.091937 
L 195.748998 152.649705 
L 198.651639 135.860423 
L 201.55428 142.091497 
L 204.456921 136.206594 
L 207.359561 137.245106 
L 210.262202 137.937448 
L 213.164843 140.187558 
L 216.067484 137.937448 
L 218.970124 139.495216 
L 221.872765 132.22563 
L 224.775406 134.648826 
L 227.678046 134.12957 
L 230.580687 136.898936 
L 233.483328 132.571801 
L 236.385969 130.667862 
L 239.288609 131.533289 
L 242.19125 127.033069 
L 245.093891 129.62935 
L 247.996532 122.532849 
L 250.899172 123.744447 
L 253.801813 124.090618 
L 256.704454 125.12913 
L 259.607094 118.551886 
L 262.509735 121.494337 
L 265.412376 118.898056 
L 268.315017 121.494337 
L 271.217657 113.186239 
L 274.120298 117.686459 
L 277.022939 116.821032 
L 279.92558 118.898056 
L 282.82822 119.763483 
L 285.730861 116.301776 
L 288.633502 114.570922 
L 291.536143 112.493897 
L 294.438783 118.032629 
L 297.341424 111.455385 
L 300.244065 116.821032 
L 303.146705 116.647946 
L 306.049346 115.263263 
L 308.951987 113.359324 
L 311.854628 113.87858 
L 314.757268 113.87858 
L 317.659909 113.53241 
L 320.56255 113.705495 
L 323.465191 113.013154 
L 326.367831 112.666983 
L 329.270472 113.705495 
L 332.173113 113.359324 
L 335.075753 112.493897 
L 337.978394 113.186239 
L 340.881035 112.666983 
L 343.783676 113.359324 
L 346.686316 112.320812 
" clip-path="url(#pa5221f3f88)" style="fill: none; stroke: #06d6a0; stroke-width: 1.6; stroke-linecap: square"/>
   </g>
   <g id="line2d_27">
    <path d="M 121.267165 261.399484 
L 123.18298 255.116248 
L 126.085621 247.500492 
L 128.988262 243.692613 
L 131.890902 232.788234 
L 134.793543 227.249502 
L 137.696184 220.499173 
L 140.598825 219.287575 
L 143.501465 209.075538 
L 146.404106 209.075538 
L 149.306747 214.960441 
L 152.209388 194.882537 
L 155.112028 193.497854 
L 158.014669 190.555402 
L 160.91731 194.536366 
L 163.81995 189.689976 
L 166.722591 177.400914 
L 169.625232 183.631987 
L 172.527873 183.285817 
L 175.430513 178.958682 
L 178.333154 176.016231 
L 181.235795 171.342926 
L 184.138436 173.246865 
L 187.041076 168.054303 
L 189.943717 170.131328 
L 192.846358 163.900254 
L 195.748998 169.092816 
L 198.651639 161.82323 
L 201.55428 167.361962 
L 204.456921 163.034828 
L 207.359561 160.957803 
L 210.262202 160.265461 
L 213.164843 157.669181 
L 216.067484 154.034388 
L 218.970124 148.668741 
L 221.872765 152.82279 
L 224.775406 148.668741 
L 227.678046 146.591717 
L 230.580687 150.57268 
L 233.483328 143.130009 
L 236.385969 150.57268 
L 239.288609 149.361083 
L 242.19125 149.880339 
L 245.093891 147.110973 
L 247.996532 144.687778 
L 250.899172 139.668302 
L 253.801813 140.187558 
L 256.704454 140.879899 
L 259.607094 140.014472 
L 262.509735 142.264582 
L 265.412376 138.110533 
L 268.315017 135.341167 
L 271.217657 134.648826 
L 274.120298 138.283619 
L 277.022939 135.341167 
L 279.92558 135.168082 
L 282.82822 137.764362 
L 285.730861 135.168082 
L 288.633502 132.744887 
L 291.536143 133.264143 
L 294.438783 132.917972 
L 297.341424 133.956484 
L 300.244065 136.033509 
L 303.146705 132.052545 
L 306.049346 131.87946 
L 308.951987 131.533289 
L 311.854628 134.302655 
L 314.757268 134.994996 
L 317.659909 132.22563 
L 320.56255 133.091057 
L 323.465191 131.533289 
L 326.367831 131.014033 
L 329.270472 131.187118 
L 332.173113 132.398716 
L 335.075753 131.533289 
L 337.978394 132.052545 
L 340.881035 132.22563 
L 343.783676 132.744887 
L 346.686316 130.494777 
" clip-path="url(#pa5221f3f88)" style="fill: none; stroke: #8338ec; stroke-width: 1.6; stroke-linecap: square"/>
   </g>
   <g id="line2d_28">
    <path d="M 129.706112 261.399484 
L 131.890902 246.80815 
L 134.793543 244.904211 
L 137.696184 241.442503 
L 140.598825 236.769198 
L 143.501465 230.71121 
L 146.404106 232.442064 
L 149.306747 222.230026 
L 152.209388 216.86438 
L 155.112028 212.883416 
L 158.014669 204.402233 
L 160.91731 204.921489 
L 163.81995 203.709891 
L 166.722591 198.171159 
L 169.625232 194.882537 
L 172.527873 194.882537 
L 175.430513 194.363281 
L 178.333154 192.113171 
L 181.235795 188.997634 
L 184.138436 185.362841 
L 187.041076 187.26678 
L 189.943717 174.112292 
L 192.846358 175.843145 
L 195.748998 175.150804 
L 198.651639 167.708133 
L 201.55428 175.496975 
L 204.456921 167.188877 
L 207.359561 169.438986 
L 210.262202 173.766121 
L 213.164843 165.631108 
L 216.067484 166.66962 
L 218.970124 157.32301 
L 221.872765 155.419071 
L 224.775406 155.592156 
L 227.678046 154.034388 
L 230.580687 156.284498 
L 233.483328 158.015352 
L 236.385969 154.034388 
L 239.288609 152.82279 
L 242.19125 156.803754 
L 245.093891 152.47662 
L 247.996532 155.0729 
L 250.899172 147.803314 
L 253.801813 150.918851 
L 256.704454 147.9764 
L 259.607094 148.149485 
L 262.509735 150.745766 
L 265.412376 147.9764 
L 268.315017 141.572241 
L 271.217657 146.245546 
L 274.120298 145.899375 
L 277.022939 148.841827 
L 279.92558 148.32257 
L 282.82822 146.591717 
L 285.730861 140.706814 
L 288.633502 140.360643 
L 291.536143 143.649265 
L 294.438783 142.437668 
L 297.341424 138.110533 
L 300.244065 138.456704 
L 303.146705 142.264582 
L 306.049346 139.149045 
L 308.951987 136.552765 
L 311.854628 140.360643 
L 314.757268 139.841387 
L 317.659909 139.841387 
L 320.56255 140.014472 
L 323.465191 138.629789 
L 326.367831 137.591277 
L 329.270472 137.764362 
L 332.173113 137.245106 
L 335.075753 137.937448 
L 337.978394 137.072021 
L 340.881035 137.591277 
L 343.783676 137.072021 
L 346.686316 137.937448 
" clip-path="url(#pa5221f3f88)" style="fill: none; stroke: #0e1cdd; stroke-width: 1.6; stroke-linecap: square"/>
   </g>
   <g id="line2d_29">
    <path d="M 132.095573 261.399484 
L 134.793543 246.115808 
L 137.696184 246.115808 
L 140.598825 243.692613 
L 143.501465 240.923247 
L 146.404106 244.55804 
L 149.306747 230.884295 
L 152.209388 238.326967 
L 155.112028 229.326527 
L 158.014669 234.692174 
L 160.91731 220.845343 
L 163.81995 223.095453 
L 166.722591 216.518209 
L 169.625232 211.152562 
L 172.527873 219.287575 
L 175.430513 216.518209 
L 178.333154 206.133086 
L 181.235795 201.632867 
L 184.138436 195.921049 
L 187.041076 198.863501 
L 189.943717 192.113171 
L 192.846358 196.959561 
L 195.748998 190.209232 
L 198.651639 187.26678 
L 201.55428 194.01711 
L 204.456921 185.362841 
L 207.359561 177.747085 
L 210.262202 180.516451 
L 213.164843 177.400914 
L 216.067484 185.189756 
L 218.970124 179.131768 
L 221.872765 179.304853 
L 224.775406 176.881658 
L 227.678046 172.381438 
L 230.580687 177.054743 
L 233.483328 169.785157 
L 236.385969 164.765681 
L 239.288609 166.32345 
L 242.19125 166.32345 
L 245.093891 165.458023 
L 247.996532 165.458023 
L 250.899172 165.458023 
L 253.801813 160.784718 
L 256.704454 159.400035 
L 259.607094 163.900254 
L 262.509735 161.303974 
L 265.412376 158.188437 
L 268.315017 163.034828 
L 271.217657 165.284937 
L 274.120298 153.688217 
L 277.022939 158.880778 
L 279.92558 153.342046 
L 282.82822 154.899815 
L 285.730861 152.47662 
L 288.633502 153.168961 
L 291.536143 152.82279 
L 294.438783 155.419071 
L 297.341424 150.745766 
L 300.244065 150.399595 
L 303.146705 151.265022 
L 306.049346 149.880339 
L 308.951987 146.937887 
L 311.854628 150.57268 
L 314.757268 149.187997 
L 317.659909 149.534168 
L 320.56255 150.918851 
L 323.465191 152.303534 
L 326.367831 151.265022 
L 329.270472 148.668741 
L 332.173113 151.265022 
L 335.075753 149.187997 
L 337.978394 148.495656 
L 340.881035 151.784278 
L 343.783676 150.918851 
L 346.686316 147.457144 
" clip-path="url(#pa5221f3f88)" style="fill: none; stroke: #ef476f; stroke-width: 1.6; stroke-linecap: square"/>
   </g>
   <g id="line2d_30">
    <path d="M 80.745491 261.399484 
L 82.54601 239.71165 
L 85.448651 223.614709 
L 88.351291 209.075538 
L 91.253932 200.421269 
L 94.156573 191.593915 
L 97.059214 178.958682 
L 99.961854 163.727169 
L 102.864495 155.419071 
L 105.767136 163.727169 
L 108.669777 142.437668 
L 111.572417 142.783838 
L 114.475058 132.398716 
L 117.377699 129.975521 
L 120.28034 122.87902 
L 123.18298 123.225191 
L 126.085621 122.359764 
L 128.988262 120.455825 
L 131.890902 110.589958 
L 134.793543 104.185799 
L 137.696184 104.878141 
L 140.598825 105.051226 
L 143.501465 97.78164 
L 146.404106 97.78164 
L 149.306747 100.897177 
L 152.209388 95.18536 
L 155.112028 90.858225 
L 158.014669 78.915334 
L 160.91731 77.703737 
L 163.81995 79.780761 
L 166.722591 80.646188 
L 169.625232 80.300017 
L 172.527873 76.83831 
L 175.430513 74.415114 
L 178.333154 73.549688 
L 181.235795 73.376602 
L 184.138436 65.241589 
L 187.041076 66.972443 
L 189.943717 65.58776 
L 192.846358 68.357126 
L 195.748998 63.33765 
L 198.651639 59.875943 
L 201.55428 64.029992 
L 204.456921 56.24115 
L 207.359561 60.395199 
L 210.262202 57.625833 
L 213.164843 57.279662 
L 216.067484 54.510296 
L 218.970124 54.164125 
L 221.872765 47.759966 
L 224.775406 49.836991 
L 227.678046 49.836991 
L 230.580687 46.721454 
L 233.483328 45.163686 
L 236.385969 45.336771 
L 239.288609 45.163686 
L 242.19125 45.682942 
L 245.093891 41.875064 
L 247.996532 46.721454 
L 250.899172 39.451868 
L 253.801813 43.779003 
L 256.704454 45.682942 
L 259.607094 40.836551 
L 262.509735 39.105698 
L 265.412376 39.278783 
L 268.315017 37.8941 
L 271.217657 37.8941 
L 274.120298 40.14421 
L 277.022939 38.932612 
L 279.92558 37.547929 
L 282.82822 36.509417 
L 285.730861 37.201758 
L 288.633502 34.778563 
L 291.536143 35.470905 
L 294.438783 34.605478 
L 297.341424 32.009197 
L 300.244065 33.913136 
L 303.146705 32.874624 
L 306.049346 33.220795 
L 308.951987 35.470905 
L 311.854628 34.259307 
L 314.757268 35.470905 
L 317.659909 34.605478 
L 320.56255 33.39388 
L 323.465191 33.047709 
L 326.367831 35.297819 
L 329.270472 34.259307 
L 332.173113 33.220795 
L 335.075753 33.740051 
L 337.978394 34.086222 
L 340.881035 33.913136 
L 343.783676 35.64399 
L 346.686316 34.951649 
" clip-path="url(#pa5221f3f88)" style="fill: none; stroke: #e49b0f; stroke-width: 2.2; stroke-linecap: square"/>
    <defs>
     <path id="meb255c3c1a" d="M 0 2.25 
C 0.596707 2.25 1.169055 2.012926 1.59099 1.59099 
C 2.012926 1.169055 2.25 0.596707 2.25 0 
C 2.25 -0.596707 2.012926 -1.169055 1.59099 -1.59099 
C 1.169055 -2.012926 0.596707 -2.25 0 -2.25 
C -0.596707 -2.25 -1.169055 -2.012926 -1.59099 -1.59099 
C -2.012926 -1.169055 -2.25 -0.596707 -2.25 0 
C -2.25 0.596707 -2.012926 1.169055 -1.59099 1.59099 
C -1.169055 2.012926 -0.596707 2.25 0 2.25 
z
" style="stroke: #e49b0f; stroke-width: 1.4"/>
    </defs>
    <g clip-path="url(#pa5221f3f88)">
     <use xlink:href="#meb255c3c1a" x="59.324884" y="702.888118" style="fill: #ffffff; stroke: #e49b0f; stroke-width: 1.4"/>
     <use xlink:href="#meb255c3c1a" x="73.838088" y="325.388911" style="fill: #ffffff; stroke: #e49b0f; stroke-width: 1.4"/>
     <use xlink:href="#meb255c3c1a" x="88.351291" y="209.075538" style="fill: #ffffff; stroke: #e49b0f; stroke-width: 1.4"/>
     <use xlink:href="#meb255c3c1a" x="102.864495" y="155.419071" style="fill: #ffffff; stroke: #e49b0f; stroke-width: 1.4"/>
     <use xlink:href="#meb255c3c1a" x="117.377699" y="129.975521" style="fill: #ffffff; stroke: #e49b0f; stroke-width: 1.4"/>
     <use xlink:href="#meb255c3c1a" x="131.890902" y="110.589958" style="fill: #ffffff; stroke: #e49b0f; stroke-width: 1.4"/>
     <use xlink:href="#meb255c3c1a" x="146.404106" y="97.78164" style="fill: #ffffff; stroke: #e49b0f; stroke-width: 1.4"/>
     <use xlink:href="#meb255c3c1a" x="160.91731" y="77.703737" style="fill: #ffffff; stroke: #e49b0f; stroke-width: 1.4"/>
     <use xlink:href="#meb255c3c1a" x="175.430513" y="74.415114" style="fill: #ffffff; stroke: #e49b0f; stroke-width: 1.4"/>
     <use xlink:href="#meb255c3c1a" x="189.943717" y="65.58776" style="fill: #ffffff; stroke: #e49b0f; stroke-width: 1.4"/>
     <use xlink:href="#meb255c3c1a" x="204.456921" y="56.24115" style="fill: #ffffff; stroke: #e49b0f; stroke-width: 1.4"/>
     <use xlink:href="#meb255c3c1a" x="218.970124" y="54.164125" style="fill: #ffffff; stroke: #e49b0f; stroke-width: 1.4"/>
     <use xlink:href="#meb255c3c1a" x="233.483328" y="45.163686" style="fill: #ffffff; stroke: #e49b0f; stroke-width: 1.4"/>
     <use xlink:href="#meb255c3c1a" x="247.996532" y="46.721454" style="fill: #ffffff; stroke: #e49b0f; stroke-width: 1.4"/>
     <use xlink:href="#meb255c3c1a" x="262.509735" y="39.105698" style="fill: #ffffff; stroke: #e49b0f; stroke-width: 1.4"/>
     <use xlink:href="#meb255c3c1a" x="277.022939" y="38.932612" style="fill: #ffffff; stroke: #e49b0f; stroke-width: 1.4"/>
     <use xlink:href="#meb255c3c1a" x="291.536143" y="35.470905" style="fill: #ffffff; stroke: #e49b0f; stroke-width: 1.4"/>
     <use xlink:href="#meb255c3c1a" x="306.049346" y="33.220795" style="fill: #ffffff; stroke: #e49b0f; stroke-width: 1.4"/>
     <use xlink:href="#meb255c3c1a" x="320.56255" y="33.39388" style="fill: #ffffff; stroke: #e49b0f; stroke-width: 1.4"/>
     <use xlink:href="#meb255c3c1a" x="335.075753" y="33.740051" style="fill: #ffffff; stroke: #e49b0f; stroke-width: 1.4"/>
    </g>
   </g>
   <g id="legend_1">
    <g id="line2d_31">
     <path d="M 52.244617 16.2 
L 55.844617 16.2 
L 59.444617 16.2 
" style="fill: none; stroke: #e49b0f; stroke-width: 2.2; stroke-linecap: square"/>
     <g>
      <use xlink:href="#meb255c3c1a" x="55.844617" y="16.2" style="fill: #ffffff; stroke: #e49b0f; stroke-width: 1.4"/>
     </g>
    </g>
    <g id="text_15">
     <!-- \textbf{LiteFA-Net-S} -->
     <g transform="translate(61.844617 20.4) scale(0.12 -0.12)">
      <defs>
       <path id="LMRoman12-Bold-4c" d="M 4019 1737 
L 3750 1737 
C 3706 1293 3603 275 2451 275 
L 1766 275 
L 1766 4140 
L 2618 4140 
L 2618 4416 
L 1395 4403 
C 1158 4403 429 4403 243 4416 
L 243 4140 
L 922 4140 
L 922 275 
L 243 275 
L 243 0 
L 3834 0 
L 4019 1737 
z
" transform="scale(0.015625)"/>
       <path id="LMRoman12-Bold-69" d="M 1786 0 
L 1786 275 
L 1389 275 
L 1389 2880 
L 301 2835 
L 301 2560 
C 678 2560 723 2560 723 2309 
L 723 275 
L 282 275 
L 282 0 
C 429 12 870 12 1043 12 
C 1222 12 1632 12 1786 0 
z
M 1466 3891 
C 1466 4153 1248 4352 1005 4352 
C 742 4352 538 4140 538 3891 
C 538 3628 755 3430 998 3430 
C 1261 3430 1466 3641 1466 3891 
z
" transform="scale(0.015625)"/>
       <path id="LMRoman12-Bold-46" d="M 4218 2844 
L 4032 4352 
L 243 4352 
L 243 4076 
L 922 4076 
L 922 275 
L 243 275 
L 243 0 
C 429 12 1158 12 1395 12 
L 2618 0 
L 2618 275 
L 1766 275 
L 1766 2048 
L 2118 2048 
C 2733 2048 2784 1765 2784 1296 
L 3053 1296 
L 3053 3066 
L 2784 3066 
C 2784 2602 2733 2323 2118 2323 
L 1766 2323 
L 1766 4076 
L 2682 4076 
C 3699 4076 3859 3612 3949 2844 
L 4218 2844 
z
" transform="scale(0.015625)"/>
       <path id="LMRoman12-Bold-2d" d="M 1997 1139 
L 1997 1728 
L 77 1728 
L 77 1139 
L 1997 1139 
z
" transform="scale(0.015625)"/>
       <path id="LMRoman12-Bold-4e" d="M 5382 4140 
L 5382 4416 
C 5235 4403 4736 4403 4557 4403 
C 4378 4403 3872 4403 3725 4416 
L 3725 4140 
L 3872 4140 
C 4045 4140 4058 4140 4211 4121 
C 4397 4095 4403 4089 4403 3947 
L 4403 1254 
L 1856 4339 
C 1792 4409 1786 4416 1658 4416 
L 243 4416 
L 243 4140 
L 922 4140 
L 922 468 
C 922 326 915 320 749 294 
C 634 281 506 275 390 275 
L 243 275 
L 243 0 
C 390 12 890 12 1069 12 
C 1248 12 1754 12 1901 0 
L 1901 275 
L 1754 275 
C 1581 275 1568 275 1414 294 
C 1229 320 1222 326 1222 468 
L 1222 3921 
L 4390 83 
C 4461 6 4467 0 4550 0 
C 4704 0 4704 38 4704 185 
L 4704 3947 
C 4704 4089 4710 4095 4877 4121 
C 4992 4134 5120 4140 5235 4140 
L 5382 4140 
z
" transform="scale(0.015625)"/>
       <path id="LMRoman12-Bold-53" d="M 3597 1311 
C 3597 1905 3200 2466 2502 2622 
L 1626 2816 
C 992 2956 973 3421 973 3512 
C 973 3842 1184 4223 1805 4223 
C 2426 4223 2982 3919 3117 3072 
C 3136 2937 3136 2931 3258 2931 
C 3392 2931 3392 2950 3392 3097 
L 3392 4313 
C 3392 4435 3392 4480 3296 4480 
C 3251 4480 3232 4473 3174 4409 
L 2899 4094 
C 2739 4230 2419 4480 1798 4480 
C 883 4480 397 3900 397 3194 
C 397 2766 627 2473 717 2385 
C 1050 2061 1229 2024 1894 1880 
C 2534 1743 2611 1730 2752 1600 
C 2835 1516 3021 1337 3021 1005 
C 3021 725 2886 211 2170 211 
C 1606 211 717 406 666 1356 
C 659 1471 659 1491 531 1491 
C 397 1491 397 1471 397 1324 
L 397 102 
C 397 -20 397 -64 493 -64 
C 538 -64 544 -58 608 0 
C 678 70 736 153 896 315 
C 1267 19 1792 -64 2176 -64 
C 3174 -64 3597 621 3597 1311 
z
" transform="scale(0.015625)"/>
      </defs>
      <use xlink:href="#LMRoman12-Bold-4c" transform="scale(0.996264)"/>
      <use xlink:href="#LMRoman12-Bold-69" transform="translate(67.339047 0) scale(0.996264)"/>
      <use xlink:href="#LMRoman12-Bold-74" transform="translate(98.472297 0) scale(0.996264)"/>
      <use xlink:href="#LMRoman12-Bold-65" transform="translate(142.058847 0) scale(0.996264)"/>
      <use xlink:href="#LMRoman12-Bold-46" transform="translate(193.200395 0) scale(0.996264)"/>
      <use xlink:href="#LMRoman12-Bold-41" transform="translate(251.199466 0) scale(0.996264)"/>
      <use xlink:href="#LMRoman12-Bold-2d" transform="translate(335.83206 0) scale(0.996264)"/>
      <use xlink:href="#LMRoman12-Bold-4e" transform="translate(373.191961 0) scale(0.996264)"/>
      <use xlink:href="#LMRoman12-Bold-65" transform="translate(460.821586 0) scale(0.996264)"/>
      <use xlink:href="#LMRoman12-Bold-74" transform="translate(511.963134 0) scale(0.996264)"/>
      <use xlink:href="#LMRoman12-Bold-2d" transform="translate(555.549684 0) scale(0.996264)"/>
      <use xlink:href="#LMRoman12-Bold-53" transform="translate(592.909585 0) scale(0.996264)"/>
     </g>
    </g>
    <g id="line2d_32">
     <path d="M 52.244617 32.924596 
L 55.844617 32.924596 
L 59.444617 32.924596 
" style="fill: none; stroke: #0e1cdd; stroke-width: 1.6; stroke-linecap: square"/>
    </g>
    <g id="text_16">
     <!-- \textbf{ConvNeXtV2-Nano} -->
     <g transform="translate(61.844617 37.124596) scale(0.12 -0.12)">
      <defs>
       <path id="LMRoman12-Bold-43" d="M 4794 1483 
C 4794 1593 4755 1600 4659 1600 
C 4595 1600 4531 1600 4525 1528 
C 4467 547 3642 211 3066 211 
C 2650 211 2086 327 1728 734 
C 1504 979 1299 1335 1299 2214 
C 1299 2835 1395 3302 1696 3660 
C 2106 4140 2746 4204 3053 4204 
C 3533 4204 4307 3936 4499 2809 
C 4512 2752 4570 2752 4646 2752 
C 4794 2752 4794 2764 4794 2918 
L 4794 4313 
C 4794 4460 4794 4480 4653 4480 
L 4173 4019 
C 3814 4326 3386 4480 2912 4480 
C 1382 4480 397 3552 397 2214 
C 397 895 1350 -64 2918 -64 
C 4058 -64 4794 721 4794 1483 
z
" transform="scale(0.015625)"/>
       <path id="LMRoman12-Bold-6e" d="M 3840 0 
L 3840 275 
L 3398 275 
L 3398 1958 
C 3398 2566 3136 2880 2432 2880 
C 1971 2880 1574 2656 1357 2176 
L 1350 2176 
L 1350 2880 
L 269 2835 
L 269 2560 
C 666 2560 710 2560 710 2304 
L 710 275 
L 269 275 
L 269 0 
C 416 12 877 12 1056 12 
C 1235 12 1702 12 1850 0 
L 1850 275 
L 1408 275 
L 1408 1638 
C 1408 2329 1920 2668 2330 2668 
C 2566 2668 2701 2515 2701 2028 
L 2701 275 
L 2259 275 
L 2259 0 
C 2406 12 2867 12 3046 12 
C 3226 12 3693 12 3840 0 
z
" transform="scale(0.015625)"/>
       <path id="LMRoman12-Bold-76" d="M 3642 2540 
L 3642 2816 
C 3411 2803 3398 2803 3136 2803 
L 2586 2816 
L 2586 2540 
C 2758 2540 2899 2508 2899 2463 
C 2899 2463 2899 2451 2867 2386 
L 2118 738 
L 1293 2540 
L 1645 2540 
L 1645 2816 
C 1498 2803 1050 2803 877 2803 
C 691 2803 320 2803 154 2816 
L 154 2540 
L 557 2540 
L 1683 89 
C 1741 -32 1754 -64 1901 -64 
C 2003 -64 2054 -52 2112 77 
L 3168 2393 
C 3213 2489 3238 2540 3642 2540 
z
" transform="scale(0.015625)"/>
       <path id="LMRoman12-Bold-58" d="M 5242 0 
L 5242 275 
L 4627 275 
L 3008 2549 
L 4090 4005 
C 4154 4089 4179 4101 4390 4121 
C 4557 4140 4582 4140 4768 4140 
L 4934 4140 
L 4934 4416 
C 4787 4403 4275 4403 4096 4403 
C 3898 4403 3341 4403 3181 4416 
L 3181 4140 
C 3258 4140 3571 4140 3763 4063 
L 2829 2800 
L 1875 4140 
L 2406 4140 
L 2406 4416 
C 2176 4403 1574 4403 1312 4403 
C 1094 4403 461 4403 288 4416 
L 288 4140 
L 909 4140 
L 2330 2137 
L 1043 410 
C 986 333 966 313 742 294 
C 582 281 550 275 371 275 
L 198 275 
L 198 0 
C 346 12 864 12 1043 12 
C 1242 12 1792 12 1952 0 
L 1952 275 
C 1882 275 1555 275 1370 352 
L 2509 1885 
L 3661 275 
L 3130 275 
L 3130 0 
C 3334 12 3974 12 4218 12 
C 4422 12 5082 12 5242 0 
z
" transform="scale(0.015625)"/>
       <path id="LMRoman12-Bold-56" d="M 5280 4140 
L 5280 4416 
C 5082 4403 4621 4403 4570 4403 
C 4390 4403 3936 4403 3789 4416 
L 3789 4140 
C 3930 4140 4166 4140 4346 4069 
L 4314 3979 
L 3002 961 
L 1619 4140 
L 2214 4140 
L 2214 4416 
C 2010 4403 1395 4403 1152 4403 
C 947 4403 314 4403 154 4416 
L 154 4140 
L 730 4140 
L 2496 71 
C 2554 -58 2611 -64 2714 -64 
C 2816 -64 2880 -64 2938 71 
L 4634 3992 
C 4672 4076 4698 4140 5171 4140 
L 5280 4140 
z
" transform="scale(0.015625)"/>
      </defs>
      <use xlink:href="#LMRoman12-Bold-43" transform="scale(0.996264)"/>
      <use xlink:href="#LMRoman12-Bold-6f" transform="translate(80.946451 0) scale(0.996264)"/>
      <use xlink:href="#LMRoman12-Bold-6e" transform="translate(136.986301 0) scale(0.996264)"/>
      <use xlink:href="#LMRoman12-Bold-76" transform="translate(196.139477 0) scale(0.996264)"/>
      <use xlink:href="#LMRoman12-Bold-4e" transform="translate(255.292653 0) scale(0.996264)"/>
      <use xlink:href="#LMRoman12-Bold-65" transform="translate(342.922278 0) scale(0.996264)"/>
      <use xlink:href="#LMRoman12-Bold-58" transform="translate(394.063826 0) scale(0.996264)"/>
      <use xlink:href="#LMRoman12-Bold-74" transform="translate(478.69642 0) scale(0.996264)"/>
      <use xlink:href="#LMRoman12-Bold-56" transform="translate(522.28297 0) scale(0.996264)"/>
      <use xlink:href="#LMRoman12-Bold-32" transform="translate(606.915564 0) scale(0.996264)"/>
      <use xlink:href="#LMRoman12-Bold-2d" transform="translate(662.955415 0) scale(0.996264)"/>
      <use xlink:href="#LMRoman12-Bold-4e" transform="translate(700.315315 0) scale(0.996264)"/>
      <use xlink:href="#LMRoman12-Bold-61" transform="translate(787.944941 0) scale(0.996264)"/>
      <use xlink:href="#LMRoman12-Bold-6e" transform="translate(842.428129 0) scale(0.996264)"/>
      <use xlink:href="#LMRoman12-Bold-6f" transform="translate(904.69463 0) scale(0.996264)"/>
     </g>
    </g>
    <g id="line2d_33">
     <path d="M 52.244617 49.649192 
L 55.844617 49.649192 
L 59.444617 49.649192 
" style="fill: none; stroke: #8338ec; stroke-width: 1.6; stroke-linecap: square"/>
    </g>
    <g id="text_17">
     <!-- \textbf{ConvNeXtV2-Tiny} -->
     <g transform="translate(61.844617 53.849192) scale(0.12 -0.12)">
      <use xlink:href="#LMRoman12-Bold-43" transform="scale(0.996264)"/>
      <use xlink:href="#LMRoman12-Bold-6f" transform="translate(80.946451 0) scale(0.996264)"/>
      <use xlink:href="#LMRoman12-Bold-6e" transform="translate(136.986301 0) scale(0.996264)"/>
      <use xlink:href="#LMRoman12-Bold-76" transform="translate(196.139477 0) scale(0.996264)"/>
      <use xlink:href="#LMRoman12-Bold-4e" transform="translate(255.292653 0) scale(0.996264)"/>
      <use xlink:href="#LMRoman12-Bold-65" transform="translate(342.922278 0) scale(0.996264)"/>
      <use xlink:href="#LMRoman12-Bold-58" transform="translate(394.063826 0) scale(0.996264)"/>
      <use xlink:href="#LMRoman12-Bold-74" transform="translate(478.69642 0) scale(0.996264)"/>
      <use xlink:href="#LMRoman12-Bold-56" transform="translate(522.28297 0) scale(0.996264)"/>
      <use xlink:href="#LMRoman12-Bold-32" transform="translate(606.915564 0) scale(0.996264)"/>
      <use xlink:href="#LMRoman12-Bold-2d" transform="translate(662.955415 0) scale(0.996264)"/>
      <use xlink:href="#LMRoman12-Bold-54" transform="translate(700.315315 0) scale(0.996264)"/>
      <use xlink:href="#LMRoman12-Bold-69" transform="translate(778.264735 0) scale(0.996264)"/>
      <use xlink:href="#LMRoman12-Bold-6e" transform="translate(809.397985 0) scale(0.996264)"/>
      <use xlink:href="#LMRoman12-Bold-79" transform="translate(868.551161 0) scale(0.996264)"/>
     </g>
    </g>
    <g id="line2d_34">
     <path d="M 52.244617 66.373787 
L 55.844617 66.373787 
L 59.444617 66.373787 
" style="fill: none; stroke: #06d6a0; stroke-width: 1.6; stroke-linecap: square"/>
    </g>
    <g id="text_18">
     <!-- \textbf{ConvNeXtV2-Base} -->
     <g transform="translate(61.844617 70.573787) scale(0.12 -0.12)">
      <defs>
       <path id="LMRoman12-Bold-42" d="M 4717 1184 
C 4717 1792 4186 2233 3411 2291 
C 4333 2465 4512 2997 4512 3303 
C 4512 3900 3974 4416 2950 4416 
L 250 4416 
L 250 4140 
L 928 4140 
L 928 275 
L 250 275 
L 250 0 
L 3142 0 
C 4198 0 4717 569 4717 1184 
z
M 3667 3309 
C 3667 2854 3418 2387 2669 2387 
L 1715 2387 
L 1715 4140 
L 2874 4140 
C 3533 4140 3667 3634 3667 3309 
z
M 3846 1196 
C 3846 793 3629 275 2893 275 
L 1715 275 
L 1715 2176 
L 2989 2176 
C 3738 2176 3846 1484 3846 1196 
z
" transform="scale(0.015625)"/>
      </defs>
      <use xlink:href="#LMRoman12-Bold-43" transform="scale(0.996264)"/>
      <use xlink:href="#LMRoman12-Bold-6f" transform="translate(80.946451 0) scale(0.996264)"/>
      <use xlink:href="#LMRoman12-Bold-6e" transform="translate(136.986301 0) scale(0.996264)"/>
      <use xlink:href="#LMRoman12-Bold-76" transform="translate(196.139477 0) scale(0.996264)"/>
      <use xlink:href="#LMRoman12-Bold-4e" transform="translate(255.292653 0) scale(0.996264)"/>
      <use xlink:href="#LMRoman12-Bold-65" transform="translate(342.922278 0) scale(0.996264)"/>
      <use xlink:href="#LMRoman12-Bold-58" transform="translate(394.063826 0) scale(0.996264)"/>
      <use xlink:href="#LMRoman12-Bold-74" transform="translate(478.69642 0) scale(0.996264)"/>
      <use xlink:href="#LMRoman12-Bold-56" transform="translate(522.28297 0) scale(0.996264)"/>
      <use xlink:href="#LMRoman12-Bold-32" transform="translate(606.915564 0) scale(0.996264)"/>
      <use xlink:href="#LMRoman12-Bold-2d" transform="translate(662.955415 0) scale(0.996264)"/>
      <use xlink:href="#LMRoman12-Bold-42" transform="translate(700.315315 0) scale(0.996264)"/>
      <use xlink:href="#LMRoman12-Bold-61" transform="translate(779.991551 0) scale(0.996264)"/>
      <use xlink:href="#LMRoman12-Bold-73" transform="translate(834.474739 0) scale(0.996264)"/>
      <use xlink:href="#LMRoman12-Bold-65" transform="translate(878.683894 0) scale(0.996264)"/>
     </g>
    </g>
    <g id="line2d_35">
     <path d="M 52.244617 83.098383 
L 55.844617 83.098383 
L 59.444617 83.098383 
" style="fill: none; stroke: #ef476f; stroke-width: 1.6; stroke-linecap: square"/>
    </g>
    <g id="text_19">
     <!-- \textbf{ResNet-18} -->
     <g transform="translate(61.844617 87.298383) scale(0.12 -0.12)">
      <defs>
       <path id="LMRoman12-Bold-52" d="M 5344 603 
C 5344 712 5293 731 5210 731 
C 5088 731 5082 686 5075 603 
C 5043 282 4845 147 4666 147 
C 4256 147 4211 577 4160 1168 
C 4122 1508 4077 1983 3386 2195 
C 4250 2426 4461 2888 4461 3235 
C 4461 3877 3789 4416 2605 4416 
L 243 4416 
L 243 4140 
L 922 4140 
L 922 275 
L 243 275 
L 243 0 
C 429 12 1094 12 1325 12 
C 1555 12 2227 12 2413 0 
L 2413 275 
L 1734 275 
L 1734 2112 
L 2496 2112 
C 2752 2112 2957 2034 3098 1866 
C 3290 1646 3290 1504 3290 1070 
C 3290 637 3290 372 3616 153 
C 3949 -58 4474 -64 4614 -64 
C 5267 -64 5344 513 5344 603 
z
M 3558 3235 
C 3558 2882 3552 2323 2483 2323 
L 1734 2323 
L 1734 4140 
L 2496 4140 
C 3539 4140 3558 3614 3558 3235 
z
" transform="scale(0.015625)"/>
      </defs>
      <use xlink:href="#LMRoman12-Bold-52" transform="scale(0.996264)"/>
      <use xlink:href="#LMRoman12-Bold-65" transform="translate(83.603236 0) scale(0.996264)"/>
      <use xlink:href="#LMRoman12-Bold-73" transform="translate(134.744783 0) scale(0.996264)"/>
      <use xlink:href="#LMRoman12-Bold-4e" transform="translate(178.953938 0) scale(0.996264)"/>
      <use xlink:href="#LMRoman12-Bold-65" transform="translate(266.583564 0) scale(0.996264)"/>
      <use xlink:href="#LMRoman12-Bold-74" transform="translate(317.725111 0) scale(0.996264)"/>
      <use xlink:href="#LMRoman12-Bold-2d" transform="translate(361.311661 0) scale(0.996264)"/>
      <use xlink:href="#LMRoman12-Bold-31" transform="translate(398.671562 0) scale(0.996264)"/>
      <use xlink:href="#LMRoman12-Bold-38" transform="translate(454.711412 0) scale(0.996264)"/>
     </g>
    </g>
    <g id="line2d_36">
     <path d="M 52.244617 100.389355 
L 55.844617 100.389355 
L 59.444617 100.389355 
" style="fill: none; stroke: #2e2e2e; stroke-width: 1.6; stroke-linecap: square"/>
    </g>
    <g id="text_20">
     <!-- \textbf{CCT-7/3x1} -->
     <g transform="translate(61.844617 104.589355) scale(0.12 -0.12)">
      <defs>
       <path id="LMRoman12-Bold-2f" d="M 3194 4621 
C 3194 4736 3104 4800 3021 4800 
C 2899 4800 2874 4723 2835 4633 
L 429 -1306 
C 397 -1383 397 -1421 397 -1421 
C 397 -1536 486 -1600 570 -1600 
C 691 -1600 717 -1530 755 -1434 
L 3162 4505 
C 3194 4582 3194 4621 3194 4621 
z
" transform="scale(0.015625)"/>
       <path id="LMRoman12-Bold-33" d="M 3290 1164 
C 3290 1479 3130 2092 2138 2265 
C 2701 2436 3091 2824 3091 3327 
C 3091 3812 2630 4224 1741 4224 
C 1024 4224 499 3839 499 3315 
C 499 2995 749 2892 915 2892 
C 1101 2892 1325 3014 1325 3308 
C 1325 3455 1261 3673 960 3718 
C 1229 3993 1664 3993 1702 3993 
C 2272 3993 2272 3539 2272 3347 
C 2272 3155 2246 2861 2042 2605 
C 1875 2392 1709 2380 1466 2368 
C 1389 2361 1261 2355 1235 2342 
C 1197 2323 1197 2278 1197 2252 
C 1197 2143 1235 2143 1363 2143 
L 1670 2143 
C 2387 2143 2387 1473 2387 1164 
C 2387 876 2387 192 1696 192 
C 1562 192 1139 211 832 434 
C 1107 492 1203 691 1203 883 
C 1203 1145 1018 1331 755 1331 
C 486 1324 301 1139 301 870 
C 301 281 941 -64 1728 -64 
C 2784 -64 3290 518 3290 1158 
L 3290 1164 
z
" transform="scale(0.015625)"/>
       <path id="LMRoman12-Bold-78" d="M 3686 0 
L 3686 275 
L 3238 275 
L 2157 1566 
L 2899 2407 
C 2970 2490 3027 2540 3558 2540 
L 3558 2816 
L 2970 2803 
C 2784 2803 2509 2803 2330 2816 
L 2330 2540 
C 2451 2540 2586 2509 2586 2464 
C 2586 2464 2554 2407 2541 2395 
L 1984 1774 
L 1350 2540 
L 1619 2540 
L 1619 2816 
C 1472 2803 1037 2803 864 2803 
C 672 2803 326 2803 147 2816 
L 147 2540 
L 602 2540 
L 1600 1338 
L 768 408 
C 691 319 646 275 115 275 
L 115 0 
L 710 12 
C 896 12 1165 12 1344 0 
L 1344 275 
C 1222 275 1088 306 1088 351 
C 1088 351 1088 363 1133 414 
L 1773 1129 
L 2483 275 
L 2214 275 
L 2214 0 
C 2368 12 2797 12 2976 12 
C 3168 12 3507 12 3686 0 
z
" transform="scale(0.015625)"/>
      </defs>
      <use xlink:href="#LMRoman12-Bold-43" transform="scale(0.996264)"/>
      <use xlink:href="#LMRoman12-Bold-43" transform="translate(80.946451 0) scale(0.996264)"/>
      <use xlink:href="#LMRoman12-Bold-54" transform="translate(161.892902 0) scale(0.996264)"/>
      <use xlink:href="#LMRoman12-Bold-2d" transform="translate(239.842321 0) scale(0.996264)"/>
      <use xlink:href="#LMRoman12-Bold-37" transform="translate(277.202221 0) scale(0.996264)"/>
      <use xlink:href="#LMRoman12-Bold-2f" transform="translate(333.242072 0) scale(0.996264)"/>
      <use xlink:href="#LMRoman12-Bold-33" transform="translate(389.281923 0) scale(0.996264)"/>
      <use xlink:href="#LMRoman12-Bold-78" transform="translate(445.321773 0) scale(0.996264)"/>
      <use xlink:href="#LMRoman12-Bold-31" transform="translate(504.474949 0) scale(0.996264)"/>
     </g>
    </g>
   </g>
  </g>
 </g>
 <defs>
  <clipPath id="pa5221f3f88">
   <rect x="47.714321" y="9.508098" width="313.485199" height="207.702452"/>
  </clipPath>
 </defs>
</svg>
